<?xml version="1.0" encoding="utf-8"?>
<!-- Generator: Adobe Illustrator 18.1.1, SVG Export Plug-In . SVG Version: 6.00 Build 0)  -->
<!DOCTYPE svg PUBLIC "-//W3C//DTD SVG 1.1//EN" "http://www.w3.org/Graphics/SVG/1.1/DTD/svg11.dtd">
<svg version="1.1" id="Layer_1" xmlns="http://www.w3.org/2000/svg" xmlns:xlink="http://www.w3.org/1999/xlink" x="0px" y="0px"
	 viewBox="0 0 50 50" enable-background="new 0 0 50 50" xml:space="preserve">
<linearGradient id="SVGID_1_" gradientUnits="userSpaceOnUse" x1="48.5358" y1="48.5355" x2="1.4648" y2="1.4645">
	<stop  offset="0" style="stop-color:#00EFFF"/>
	<stop  offset="0.8" style="stop-color:#009EEF"/>
	<stop  offset="1" style="stop-color:#007FEF"/>
</linearGradient>
<path fill="url(#SVGID_1_)" d="M45,50H5c-2.8,0-5-2.2-5-5V5c0-2.8,2.2-5,5-5h40c2.8,0,5,2.2,5,5v40C50,47.8,47.8,50,45,50z"/>
<path opacity="0.15" fill="#272425" d="M50,25.6V45c0,2.8-2.2,5-5,5H16l-6-9h30V13L50,25.6z"/>
<g>
	<rect x="10" y="13" opacity="0.4" fill="#FFFFFF" width="30" height="28"/>
	<rect x="13" y="20" opacity="0.5" fill="#FFFFFF" width="4" height="18"/>
	<rect x="23" y="20" opacity="0.5" fill="#FFFFFF" width="4" height="18"/>
	<rect x="18" y="20" opacity="0.5" fill="#FFFFFF" width="4" height="18"/>
	<rect x="28" y="20" opacity="0.5" fill="#FFFFFF" width="4" height="18"/>
	<rect x="33" y="20" opacity="0.5" fill="#FFFFFF" width="4" height="18"/>
	<circle opacity="0.5" fill="#FFFFFF" cx="35" cy="17" r="2"/>
</g>
<g>
	<g opacity="0.5">
		<image overflow="visible" width="82" height="81" xlink:href="F6BD352A29FC6959.png"  transform="matrix(1 0 0 1 45 -14)">
		</image>
	</g>
</g>
<path fill="#FFFFFF" d="M43.2,18.8c-1.4,2.4-4,4-7,4c-4.5,0-8.2-3.7-8.2-8.2c0-4.4,3.5-8.1,8-8.2V14L43.2,18.8z"/>
<path fill="#F9FAFA" d="M44.4,14.6c0,1.2-0.2,2.3-0.7,3.3L41.9,17c0.3-0.7,0.5-1.5,0.5-2.4c0-3.4-2.8-6.2-6.2-6.2
	c-0.1,0-0.1,0-0.2,0v-2c0.1,0,0.1,0,0.2,0C40.7,6.4,44.4,10.1,44.4,14.6z"/>
</svg>
