<?xml version="1.0" encoding="utf-8"?>
<!-- Generator: Adobe Illustrator 18.1.1, SVG Export Plug-In . SVG Version: 6.00 Build 0)  -->
<!DOCTYPE svg PUBLIC "-//W3C//DTD SVG 1.1//EN" "http://www.w3.org/Graphics/SVG/1.1/DTD/svg11.dtd">
<svg version="1.1" id="Layer_1" xmlns="http://www.w3.org/2000/svg" xmlns:xlink="http://www.w3.org/1999/xlink" x="0px" y="0px"
	 viewBox="0 0 50 50" enable-background="new 0 0 50 50" xml:space="preserve">
<linearGradient id="SVGID_1_" gradientUnits="userSpaceOnUse" x1="48.5358" y1="48.5355" x2="1.4648" y2="1.4645">
	<stop  offset="0" style="stop-color:#00EFFF"/>
	<stop  offset="0.8" style="stop-color:#009EEF"/>
	<stop  offset="1" style="stop-color:#007FEF"/>
</linearGradient>
<path fill="url(#SVGID_1_)" d="M45,50H5c-2.8,0-5-2.2-5-5V5c0-2.8,2.2-5,5-5h40c2.8,0,5,2.2,5,5v40C50,47.8,47.8,50,45,50z"/>
<g>
	<rect x="10" y="11" opacity="0.4" fill="#FFFFFF" width="30" height="30"/>
	<rect x="18" y="20" opacity="0.5" fill="#FFFFFF" width="4" height="18"/>
	<rect x="13" y="20" opacity="0.5" fill="#FFFFFF" width="4" height="18"/>
	<rect x="23" y="20" opacity="0.5" fill="#FFFFFF" width="4" height="18"/>
	<rect x="28" y="20" opacity="0.5" fill="#FFFFFF" width="4" height="18"/>
	<rect x="33" y="20" opacity="0.5" fill="#FFFFFF" width="4" height="18"/>
	<line opacity="0.1" fill="none" stroke="#009EEF" stroke-miterlimit="10" x1="13" y1="20.5" x2="17" y2="20.5"/>
	<line opacity="0.1" fill="none" stroke="#009EEF" stroke-miterlimit="10" x1="18" y1="20.5" x2="22" y2="20.5"/>
	<line opacity="0.1" fill="none" stroke="#009EEF" stroke-miterlimit="10" x1="23" y1="20.5" x2="27" y2="20.5"/>
	<line opacity="0.1" fill="none" stroke="#009EEF" stroke-miterlimit="10" x1="28" y1="20.5" x2="32" y2="20.5"/>
	<line opacity="0.1" fill="none" stroke="#009EEF" stroke-miterlimit="10" x1="33" y1="20.5" x2="37" y2="20.5"/>
	<line opacity="0.5" fill="none" stroke="#FFFFFF" stroke-miterlimit="10" x1="13" y1="37.5" x2="17" y2="37.5"/>
	<line opacity="0.5" fill="none" stroke="#FFFFFF" stroke-miterlimit="10" x1="18" y1="37.5" x2="22" y2="37.5"/>
	<line opacity="0.5" fill="none" stroke="#FFFFFF" stroke-miterlimit="10" x1="23" y1="37.5" x2="27" y2="37.5"/>
	<line opacity="0.5" fill="none" stroke="#FFFFFF" stroke-miterlimit="10" x1="28" y1="37.5" x2="32" y2="37.5"/>
	<line opacity="0.5" fill="none" stroke="#FFFFFF" stroke-miterlimit="10" x1="33" y1="37.5" x2="37" y2="37.5"/>
	<line opacity="0.25" fill="none" stroke="#FFFFFF" stroke-miterlimit="10" x1="10" y1="11.5" x2="40" y2="11.5"/>
	<circle fill="#FFFFFF" cx="35" cy="16" r="2"/>
</g>
<path opacity="0.15" fill="#272425" d="M50,25.6V45c0,2.8-2.2,5-5,5H16l-6-9h30V13L50,25.6z"/>
</svg>
