<?xml version="1.0" encoding="utf-8"?>
<!-- Generator: Adobe Illustrator 18.1.1, SVG Export Plug-In . SVG Version: 6.00 Build 0)  -->
<!DOCTYPE svg PUBLIC "-//W3C//DTD SVG 1.1//EN" "http://www.w3.org/Graphics/SVG/1.1/DTD/svg11.dtd">
<svg version="1.1" id="Layer_1" xmlns="http://www.w3.org/2000/svg" xmlns:xlink="http://www.w3.org/1999/xlink" x="0px" y="0px"
	 viewBox="0 0 58 50" enable-background="new 0 0 58 50" xml:space="preserve">
<g id="Layer_3_5_">
	<linearGradient id="SVGID_1_" gradientUnits="userSpaceOnUse" x1="52.3704" y1="48.3704" x2="5.6733" y2="1.6733">
		<stop  offset="0" style="stop-color:#68AACC"/>
		<stop  offset="3.386081e-02" style="stop-color:#6799B3"/>
		<stop  offset="1" style="stop-color:#2F4F69"/>
	</linearGradient>
	<path fill="url(#SVGID_1_)" d="M48.4,50H9.6C6.5,50,4,47.5,4,44.4V5.6C4.1,2.5,6.6,0,9.6,0h38.8C51.5,0,54,2.5,54,5.6v38.9
		C54,47.5,51.5,50,48.4,50z"/>
	<polygon opacity="0.15" fill="#272425" enable-background="new    " points="19.5,11.4 38.1,11.4 54,27.7 54,45.1 53.8,46 
		53.7,46.4 53.2,47.3 52.8,48.1 51.8,48.9 50.5,49.5 48.8,50 27,50 16.2,36.6 15.8,35.5 15,25 	"/>
	<g>
		<g>
			<path fill="#FFFFFF" d="M19,36c0.3,0.2,1,0.4,2,0.4h0.5v2.2h-0.9c-1,0-1.8-0.1-2.2-0.2c-0.7-0.2-1.2-0.6-1.7-1.1
				c-0.4-0.5-0.7-1.1-0.9-1.8c-0.1-0.7-0.2-2-0.2-3.7s-0.1-2.9-0.3-3.5c-0.2-0.6-0.5-1.2-1-1.5c-0.5-0.4-1.2-0.6-2-0.6
				c0,0,0-2.5,0-2.5c0.8,0,1.5-0.2,2-0.6c0.5-0.4,0.8-0.9,1-1.5c0.2-0.6,0.3-1.8,0.3-3.3c0-1.6,0-2.6,0.1-3.1
				c0.1-0.8,0.3-1.4,0.5-1.9c0.3-0.5,0.6-0.9,1-1.1c0.4-0.3,0.9-0.5,1.5-0.7c0.4-0.1,1.1-0.1,2-0.1h0.9v2.2h-0.5
				c-1.1,0-1.8,0.2-2.2,0.5c-0.4,0.4-0.5,1.1-0.5,2.4c0,2.5-0.1,4-0.2,4.7c-0.2,1-0.5,1.8-1,2.3C16.7,24,16,24.5,15,25
				c1.2,0.4,2,1.1,2.5,2s0.8,2.3,0.8,4.4c0,1.8,0,2.9,0.1,3.3"/>
		</g>
		<g>
			<path fill="#FFFFFF" d="M44.4,23.7V26c-0.8,0-1.5,0.2-2,0.6c-0.5,0.4-0.8,0.9-1,1.5c-0.2,0.6-0.3,1.8-0.3,3.3
				c0,1.6,0,2.6-0.1,3.1c-0.1,0.8-0.3,1.4-0.5,1.9c-0.3,0.5-0.6,0.9-1,1.1c-0.4,0.3-0.9,0.5-1.5,0.7c-0.4,0.1-1.1,0.2-2,0.2h-0.9
				v-2.2h0.5c1.1,0,1.8-0.2,2.2-0.5c0.4-0.3,0.5-1.1,0.5-2.4c0-2.4,0-3.8,0.1-4.5c0.2-1,0.5-1.9,1-2.5c0.5-0.6,1.2-1.1,2.1-1.5
				c-1.2-0.5-2.1-1.2-2.6-2.1c-0.5-0.9-0.7-2.3-0.7-4.3c0-1.8,0-2.9-0.1-3.3c-0.1-0.6-0.3-1.1-0.6-1.3s-1-0.4-2-0.4H35v-2.2h0.9
				c1,0,1.8,0.1,2.2,0.2c0.7,0.2,1.2,0.6,1.7,1c0.4,0.5,0.7,1.1,0.9,1.8c0.1,0.7,0.2,2,0.2,3.7s0.1,2.9,0.3,3.5
				c0.2,0.6,0.5,1.2,1,1.5C42.9,23.5,43.6,23.7,44.4,23.7z"/>
		</g>
		<g>
			<path fill="#FFFFFF" d="M19.5,24.6c0-1.1,0.8-1.8,1.9-1.8c1.1,0,1.9,0.8,1.9,1.8s-0.7,1.8-1.9,1.8C20.3,26.4,19.5,25.6,19.5,24.6
				z"/>
			<path fill="#FFFFFF" d="M26.2,24.6c0-1.1,0.8-1.8,1.9-1.8s1.9,0.8,1.9,1.8s-0.7,1.8-1.9,1.8C27,26.4,26.2,25.6,26.2,24.6z"/>
			<path fill="#FFFFFF" d="M32.8,24.6c0-1.1,0.8-1.8,1.9-1.8s1.9,0.8,1.9,1.8s-0.7,1.8-1.9,1.8C33.6,26.4,32.8,25.6,32.8,24.6z"/>
		</g>
	</g>
</g>
</svg>
