<?xml version="1.0" encoding="utf-8"?>
<!-- Generator: Adobe Illustrator 18.1.1, SVG Export Plug-In . SVG Version: 6.00 Build 0)  -->
<!DOCTYPE svg PUBLIC "-//W3C//DTD SVG 1.1//EN" "http://www.w3.org/Graphics/SVG/1.1/DTD/svg11.dtd">
<svg version="1.1" id="Layer_1" xmlns="http://www.w3.org/2000/svg" xmlns:xlink="http://www.w3.org/1999/xlink" x="0px" y="0px"
	 viewBox="0 0 58 50" enable-background="new 0 0 58 50" xml:space="preserve">
<g id="Layer_3_2_">
	<linearGradient id="SVGID_1_" gradientUnits="userSpaceOnUse" x1="52.3698" y1="48.3698" x2="5.6979" y2="1.6979">
		<stop  offset="0" style="stop-color:#68AACC"/>
		<stop  offset="3.386081e-02" style="stop-color:#6799B3"/>
		<stop  offset="1" style="stop-color:#2F4F69"/>
	</linearGradient>
	<path fill="url(#SVGID_1_)" d="M48.4,50H9.6C6.5,50,4,47.5,4,44.4V5.6C4.2,2.5,6.7,0,9.6,0h38.8C51.5,0,54,2.5,54,5.6v38.9
		C54,47.5,51.5,50,48.4,50z"/>
</g>
<path opacity="0.15" fill="#272425" enable-background="new    " d="M54.1,27.2v17.9L53.8,46l-0.2,0.4l-0.5,0.9l-0.5,0.8l-0.9,0.8
	l-1.4,0.6L48.7,50H28.4L13.2,40h31.9c-0.2-2-0.9-4.4-2.6-5.9c0,0-3.9-3.1-9.2-4.1h-0.4l-0.6-2.2C34,27,34.4,25,34.8,23h0.1
	c0.9,0,1.5-0.6,1.5-1.5l0.2-1.3c0-0.4-0.2-0.8-0.5-1.2c-0.2-0.2-0.3-0.2-0.5-0.3c0.2-0.5,0.2-1.1,0.2-1.7c0-1-0.3-2-0.7-2.9
	l-1.4-1.9L32,10.5l2.7,2.2L54.1,27.2z"/>
<g>
	<g>
		<path fill="#BABCBE" d="M45.6,40.2H12.8l0,0h-0.3c0.2-2.6,1.2-5.1,2.7-6.4c0.2-0.2,4.1-3.8,9.4-3.9h0.1c0.1-0.3,0.2-0.7,0.4-1.7
			c-1.6-1-2-3-2.3-4.7c-1-0.2-1.7-1-1.7-2.1L21,20.2c0-0.6,0.2-1.1,0.6-1.5c0.1-0.1,0.2-0.2,0.3-0.3c-0.1-0.5-0.2-0.9-0.2-1.4
			c0-4,3.2-7.2,7.2-7.2H29c3.9,0.1,7.1,3.3,7.1,7.2c0,0.5,0,1-0.1,1.5c0.1,0.1,0.2,0.2,0.3,0.3c0.4,0.4,0.6,0.9,0.6,1.5l-0.2,1.5
			c0,1.1-0.7,1.9-1.7,2c-0.2,1.6-0.7,3.7-2.3,4.7c0.2,0.8,0.3,1.3,0.4,1.7h0.2c5.3,0.3,9.2,3.8,9.3,3.9c1.4,1.3,2.3,3.3,2.7,5.9
			L45.6,40.2z M13.3,39.4h31.3c-0.3-2.2-1.2-3.8-2.4-4.9c-0.1,0-3.8-3.6-8.9-3.7l0,0l0,0h-0.8v-0.4c0-0.1-0.3-1.2-0.6-2.2l-0.1-0.3
			l0.3-0.2c1.4-0.7,1.8-2.5,2.2-4.5l0.1-0.3h0.3c0.8,0,1.2-0.7,1.2-1.2l0.2-1.5c0-0.3-0.2-0.6-0.4-0.8c-0.1-0.1-0.2-0.2-0.4-0.3
			l-0.3-0.2l0.1-0.3c0.2-0.4,0.2-1,0.2-1.5c0-3.5-2.8-6.3-6.2-6.4h-0.1c-3.5,0-6.3,2.9-6.3,6.4c0,0.5,0.1,0.9,0.2,1.4l0.1,0.5
			l-0.2,0.2c-0.2,0.1-0.2,0.2-0.4,0.3c-0.2,0.3-0.4,0.6-0.4,0.8l0.2,1.3c0,0.7,0.3,1.3,1.1,1.3h0.3l0.2,0.3c0.3,2.1,0.7,3.8,2.2,4.5
			l0.3,0.2l-0.1,0.3c-0.2,0.9-0.6,2-0.6,2.2v0.4h-0.4c-0.3,0-0.5,0-0.5,0h-0.4c-4.8,0.3-8.3,3.7-8.4,3.7
			C14.5,35.6,13.7,37.2,13.3,39.4z"/>
	</g>
</g>
</svg>
