<?xml version="1.0" encoding="utf-8"?>
<!-- Generator: Adobe Illustrator 18.1.1, SVG Export Plug-In . SVG Version: 6.00 Build 0)  -->
<!DOCTYPE svg PUBLIC "-//W3C//DTD SVG 1.1//EN" "http://www.w3.org/Graphics/SVG/1.1/DTD/svg11.dtd">
<svg version="1.1" id="Layer_1" xmlns="http://www.w3.org/2000/svg" xmlns:xlink="http://www.w3.org/1999/xlink" x="0px" y="0px"
	 viewBox="570 375 60 50" enable-background="new 570 375 60 50" xml:space="preserve">
<linearGradient id="SVGID_1_" gradientUnits="userSpaceOnUse" x1="30.2344" y1="773.7656" x2="27.7656" y2="776.2344" gradientTransform="matrix(16 0 0 -16 136 12800)">
	<stop  offset="0" style="stop-color:#00FF00"/>
	<stop  offset="1" style="stop-color:#009245"/>
</linearGradient>
<polygon fill="url(#SVGID_1_)" points="585.5,425 571,400 585.5,375 614.5,375 629,400 614.5,425 "/>
<polygon opacity="0.1" fill="#272425" enable-background="new    " points="615.4,388.2 588.2,387.6 581.4,408.1 594.8,425 
	614.5,425 625.3,406.4 "/>
<g opacity="0.9">
	<path opacity="0.8" fill="#F1F1F1" enable-background="new    " d="M595.9,412.9l-5.7-1.6l-10.8-2l5.2-13.3h8.8l11,0.4L595.9,412.9
		z M583.5,407l7.4,1.4l3.4,1l5.3-10.2l-6.2-0.2l-6.7,0L583.5,407z"/>
	<path fill="#F1F1F1" d="M618.6,400.8l-19-0.3l6.4-14.8l10.7,1L618.6,400.8z M604.2,397.6l11,0.1l-1.1-8.2l-6.1-0.6L604.2,397.6z"/>
	<path opacity="0.8" fill="#F1F1F1" enable-background="new    " d="M595.4,412.6l0-3l10.4-0.1l-5.9-11.7l18.8-0.3l-4.6,14.9h-5.8
		L595.4,412.6z M609.1,409.5h2.7l2.8-8.9l-9.8,0.1L609.1,409.5z"/>
	<path opacity="0.8" fill="#F1F1F1" enable-background="new    " d="M591.6,410.2l-2.9-0.7l2.5-10.7h-7.7l3.7-13l21.4,2.8l-14.2,9.6
		L591.6,410.2z M587.4,395.9h5.2l7.7-5.2l-11-1.4L587.4,395.9z"/>
	<g opacity="0.5">
		<g>
			<path fill="#919395" d="M619.2,402.3l-20.3-0.3l6.9-15.8l11.4,1.1L619.2,402.3z M604.9,398.1l9.7,0.1l-1-7.2l-5.4-0.5
				L604.9,398.1z"/>
		</g>
	</g>
	<g>
		<g>
			<path fill="#FFFFFF" d="M619.2,401.3l-20.3-0.3l6.9-15.8l11.4,1.1L619.2,401.3z M604.9,397.1l9.7,0.1l-1-7.2l-5.4-0.5
				L604.9,397.1z"/>
		</g>
	</g>
</g>
</svg>
