<?xml version="1.0" encoding="utf-8"?>
<!-- Generator: Adobe Illustrator 18.1.1, SVG Export Plug-In . SVG Version: 6.00 Build 0)  -->
<!DOCTYPE svg PUBLIC "-//W3C//DTD SVG 1.1//EN" "http://www.w3.org/Graphics/SVG/1.1/DTD/svg11.dtd">
<svg version="1.1" id="Layer_1" xmlns="http://www.w3.org/2000/svg" xmlns:xlink="http://www.w3.org/1999/xlink" x="0px" y="0px"
	 viewBox="0 0 58 50" enable-background="new 0 0 58 50" xml:space="preserve">
<g id="Layer_3_4_">
	<linearGradient id="SVGID_1_" gradientUnits="userSpaceOnUse" x1="52.3699" y1="48.3698" x2="5.6979" y2="1.6979">
		<stop  offset="0" style="stop-color:#68AACC"/>
		<stop  offset="3.386081e-02" style="stop-color:#6799B3"/>
		<stop  offset="1" style="stop-color:#2F4F69"/>
	</linearGradient>
	<path fill="url(#SVGID_1_)" d="M48.4,50H9.6C6.5,50,4,47.5,4,44.4V5.6C4.2,2.5,6.7,0,9.6,0h38.8C51.5,0,54,2.5,54,5.6v38.9
		C54,47.5,51.5,50,48.4,50z"/>
	<polygon opacity="0.15" fill="#272425" enable-background="new    " points="44,39.5 44,11.5 54,25 54,45.1 53.8,46 53.7,46.4 
		53.2,47.3 52.8,48.1 51.8,48.9 50.5,49.5 48.8,50 27,50 14,39.5 	"/>
</g>
<g>
	<rect x="14" y="11.5" opacity="0.4" fill="#FFFFFF" width="30" height="28"/>
	<rect x="17" y="18.5" opacity="0.5" fill="#FFFFFF" width="4" height="18"/>
	<rect x="27" y="18.5" opacity="0.5" fill="#FFFFFF" width="4" height="18"/>
	<rect x="22" y="18.5" opacity="0.5" fill="#FFFFFF" width="4" height="18"/>
	<rect x="32" y="18.5" opacity="0.5" fill="#FFFFFF" width="4" height="18"/>
	<rect x="37" y="18.5" opacity="0.5" fill="#FFFFFF" width="4" height="18"/>
	<circle opacity="0.5" fill="#FFFFFF" cx="39" cy="15.5" r="2"/>
</g>
<g id="ADD_NE">
	<rect x="36.7" y="9.1" fill="#3B647F" width="9.5" height="10.1"/>
	<g>
		<path fill="#FFFFFF" d="M46.8,7.1H36.2c-0.9,0-1.7,0.8-1.7,1.8v10.7c0,1,0.8,1.8,1.7,1.8h10.7c1,0,1.7-0.8,1.7-1.8V8.8
			C48.6,7.9,47.8,7.1,46.8,7.1z M46.1,15.4h-3.3v3.3h-2.5v-3.3h-3.3v-2.5h3.3V9.6h2.5v3.3h3.3V15.4z"/>
	</g>
</g>
</svg>
