<?xml version="1.0" encoding="utf-8"?>
<!-- Generator: Adobe Illustrator 18.1.1, SVG Export Plug-In . SVG Version: 6.00 Build 0)  -->
<!DOCTYPE svg PUBLIC "-//W3C//DTD SVG 1.1//EN" "http://www.w3.org/Graphics/SVG/1.1/DTD/svg11.dtd">
<svg version="1.1" id="Layer_1" xmlns="http://www.w3.org/2000/svg" xmlns:xlink="http://www.w3.org/1999/xlink" x="0px" y="0px"
	 viewBox="0 0 58 50" enable-background="new 0 0 58 50" xml:space="preserve">
<g>
	<linearGradient id="SVGID_1_" gradientUnits="userSpaceOnUse" x1="46.6767" y1="42.6968" x2="11.3212" y2="7.3412">
		<stop  offset="0" style="stop-color:#00FFF0"/>
		<stop  offset="1" style="stop-color:#008A61"/>
	</linearGradient>
	<path fill="url(#SVGID_1_)" d="M54,25c0,13.8-11.2,25-25,25c-3.4,0-6.6-0.7-9.6-1.9C10.4,44.3,4,35.4,4,25C4,11.2,15.2,0,29,0
		c13.6,0,24.7,10.9,25,24.4C54,24.6,54,24.8,54,25z"/>
	<g>
		<path fill="none" d="M54,25c0,13.8-11.2,25-25,25"/>
	</g>
	<path opacity="0.25" fill="#272425" d="M53.4,30.5c-2.5,10.9-12,19.1-23.5,19.5h-1.8L14.5,36h23.5l0-19.2L53.4,30.5z"/>
	<g>
		<g>
			<rect x="15" y="17.1" opacity="0.3" fill="#FFFFFF" width="23" height="18.9"/>
			<path opacity="0.9" fill="#F1F1F1" d="M20.2,15.1v22.7h4.5V15.1H20.2z M24,18.8h-3v-3h3V18.8z M24.1,22.9h-3v-3.1h3V22.9z
				 M24.1,26.8h-3v-3.1h3V26.8z M24,36.8h-3v-3.1h3V36.8z"/>
			<rect x="16.1" y="18.9" opacity="0.2" fill="#F1F1F1" width="3.4" height="15.1"/>
			<rect x="29.7" y="18.9" opacity="0.2" fill="#F1F1F1" width="3.4" height="15.1"/>
			<rect x="25.5" y="18.9" opacity="0.2" fill="#F1F1F1" width="3.4" height="15.1"/>
			<rect x="33.9" y="18.9" opacity="0.2" fill="#F1F1F1" width="3.4" height="15.1"/>
		</g>
		<path opacity="0.15" fill="#272425" d="M48.4,11.6v7.6c0,0.9-0.7,1.6-1.6,1.6h-4.3l-4.2,3.3v-3.3h-4.6c-0.9,0-1.6-0.7-1.6-1.6
			v-7.6c0-0.9,0.7-1.6,1.6-1.6h13.1C47.7,10,48.4,10.8,48.4,11.6z"/>
		<path fill="#FFFFFF" d="M47.9,10.9v7.6c0,0.9-0.7,1.6-1.6,1.6h-4.2l-3.9,3.3v-3.3h-4.6c-0.9,0-1.6-0.7-1.6-1.6v-7.6
			c0-0.9,0.7-1.6,1.6-1.6h12.8C47.2,9.3,47.9,10.1,47.9,10.9z"/>
	</g>
</g>
</svg>
