<?xml version="1.0" encoding="utf-8"?>
<!-- Generator: Adobe Illustrator 18.1.1, SVG Export Plug-In . SVG Version: 6.00 Build 0)  -->
<!DOCTYPE svg PUBLIC "-//W3C//DTD SVG 1.1//EN" "http://www.w3.org/Graphics/SVG/1.1/DTD/svg11.dtd">
<svg version="1.1" id="Layer_1" xmlns="http://www.w3.org/2000/svg" xmlns:xlink="http://www.w3.org/1999/xlink" x="0px" y="0px"
	 viewBox="0 0 58 50" enable-background="new 0 0 58 50" xml:space="preserve">
<g id="Layer_3_3_">
	<linearGradient id="SVGID_1_" gradientUnits="userSpaceOnUse" x1="53.3698" y1="48.3698" x2="6.6979" y2="1.6979">
		<stop  offset="0" style="stop-color:#68AACC"/>
		<stop  offset="3.386081e-02" style="stop-color:#6799B3"/>
		<stop  offset="1" style="stop-color:#2F4F69"/>
	</linearGradient>
	<path fill="url(#SVGID_1_)" d="M49.4,50H10.6C7.5,50,5,47.5,5,44.4V5.6C5.2,2.5,7.7,0,10.6,0h38.8C52.5,0,55,2.5,55,5.6v38.9
		C55,47.5,52.5,50,49.4,50z"/>
	<polygon opacity="0.15" fill="#272425" enable-background="new    " points="43.4,37.7 43.5,10.8 55,25 55,45.1 54.8,46 54.7,46.4 
		54.2,47.3 53.8,48.1 52.8,48.9 51.5,49.5 49.8,50 30.9,50 16.6,37.7 	"/>
</g>
<g>
	<path fill="#E8E8E8" d="M22.7,33.9h3.2v1h-4.5v-7.1h1.2V33.9z"/>
	<path fill="#E8E8E8" d="M32.2,31.6c0,0.5-0.1,1-0.2,1.5c-0.1,0.4-0.3,0.8-0.6,1.1c-0.3,0.3-0.6,0.5-0.9,0.7S29.7,35,29.2,35
		c-0.4,0-0.8-0.1-1.2-0.2s-0.7-0.4-0.9-0.7c-0.3-0.3-0.5-0.7-0.6-1.1c-0.1-0.4-0.2-0.9-0.2-1.5v-0.4c0-0.5,0.1-1,0.2-1.5
		c0.1-0.4,0.3-0.8,0.6-1.1c0.3-0.3,0.6-0.5,0.9-0.7c0.4-0.2,0.8-0.2,1.2-0.2c0.4,0,0.8,0.1,1.2,0.2c0.4,0.2,0.7,0.4,0.9,0.7
		c0.3,0.3,0.5,0.7,0.6,1.1c0.1,0.4,0.2,0.9,0.2,1.5V31.6z M31,31.2c0-0.4,0-0.7-0.1-1.1c-0.1-0.3-0.2-0.6-0.3-0.8S30.2,29,30,28.9
		c-0.2-0.1-0.5-0.2-0.7-0.2c-0.3,0-0.5,0.1-0.7,0.2c-0.2,0.1-0.4,0.3-0.5,0.5c-0.1,0.2-0.3,0.5-0.3,0.8c-0.1,0.3-0.1,0.7-0.1,1.1
		v0.4c0,0.4,0,0.7,0.1,1.1c0.1,0.3,0.2,0.6,0.3,0.8c0.1,0.2,0.3,0.4,0.5,0.5C28.7,34,29,34,29.2,34c0.5,0,1-0.2,1.3-0.6
		c0.3-0.4,0.4-1,0.4-1.8V31.2z"/>
	<path fill="#E8E8E8" d="M38.9,34c-0.1,0.1-0.2,0.2-0.3,0.3c-0.1,0.1-0.3,0.2-0.5,0.3c-0.2,0.1-0.5,0.2-0.8,0.3
		C37,35,36.6,35,36.2,35c-0.4,0-0.9-0.1-1.2-0.2c-0.4-0.2-0.7-0.4-1-0.7s-0.5-0.6-0.6-1.1c-0.1-0.4-0.2-0.9-0.2-1.5v-0.5
		c0-0.5,0.1-1,0.2-1.4s0.3-0.8,0.6-1.1s0.6-0.5,0.9-0.7c0.4-0.2,0.8-0.2,1.2-0.2c0.4,0,0.8,0.1,1.1,0.2s0.6,0.3,0.8,0.5
		c0.2,0.2,0.4,0.4,0.5,0.7s0.2,0.6,0.3,0.9h-1.2c0-0.2-0.1-0.4-0.1-0.5s-0.2-0.3-0.3-0.4c-0.1-0.1-0.3-0.2-0.4-0.3
		c-0.2-0.1-0.4-0.1-0.6-0.1c-0.3,0-0.5,0.1-0.8,0.2c-0.2,0.1-0.4,0.3-0.5,0.5c-0.1,0.2-0.2,0.5-0.3,0.8c-0.1,0.3-0.1,0.6-0.1,1v0.5
		c0,0.4,0,0.7,0.1,1c0.1,0.3,0.2,0.6,0.4,0.8c0.2,0.2,0.4,0.4,0.6,0.5C35.7,34,36,34,36.3,34c0.2,0,0.4,0,0.5,0
		c0.2,0,0.3-0.1,0.4-0.1s0.2-0.1,0.3-0.1c0.1-0.1,0.1-0.1,0.2-0.1v-1.4h-1.5v-0.9h2.7V34z"/>
</g>
<path fill="#BABCBE" d="M41.8,10.2H18.2c-1.4,0-2.5,1.1-2.5,2.5v8.1h0.8v-8.1c0-0.9,0.7-1.7,1.7-1.7h23.7c0.9,0,1.7,0.7,1.7,1.7
	v23.4c0,0.9-0.8,1.7-1.7,1.7H18.2c-0.9,0-1.7-0.7-1.7-1.7V22.9h-0.8v13.2c0,1.3,1.1,2.5,2.5,2.5h23.7c1.4,0,2.5-1.2,2.5-2.5V12.7
	C44.3,11.3,43.3,10.2,41.8,10.2z"/>
<polygon fill="#E8E8E8" points="25,24.6 22.3,22.6 20.6,23.8 15.7,23.8 15.7,22.9 20.3,22.9 22.3,21.6 24.5,23.2 27.1,14.6 
	30.2,21.8 33.1,20.1 35,22.7 40.3,22.7 40.3,23.6 34.6,23.6 32.8,21.2 29.8,23.1 27.2,17 "/>
</svg>
