<?xml version="1.0" encoding="utf-8"?>
<!-- Generator: Adobe Illustrator 19.2.1, SVG Export Plug-In . SVG Version: 6.00 Build 0)  -->
<svg version="1.1" id="Layer_1" xmlns="http://www.w3.org/2000/svg" xmlns:xlink="http://www.w3.org/1999/xlink" x="0px" y="0px"
	 viewBox="0 0 11 13" style="enable-background:new 0 0 11 13;" xml:space="preserve">
<style type="text/css">
	.st0{fill:#7B7F7F;}
	.st1{fill:#FFFFFF;}
	.st2{fill:#595A5C;}
</style>
<g>
	<path class="st0" d="M5.5,0C5.5,0,7,3.1,11,3.1c0,0,0.9,6.6-5.5,9.3V0z"/>
	<path class="st1" d="M5.5,12.4C-0.9,9.7,0,3.1,0,3.1C4,3.1,5.5,0,5.5,0V12.4z"/>
	<g>
		<g>
			<path class="st2" d="M5.5,1.7C6.3,2.6,7.7,3.8,9.9,4c0,1.6-0.5,5.4-4.4,7.2C1.6,9.3,1.1,5.7,1.1,4C3.3,3.8,4.7,2.6,5.5,1.7
				 M5.5,0C5.5,0,4,3.1,0,3.1c0,0-0.9,6.6,5.5,9.3C11.9,9.7,11,3.1,11,3.1C7,3.1,5.5,0,5.5,0L5.5,0z"/>
		</g>
	</g>
</g>
</svg>
