<svg viewBox="0 0 35 35">
    <g opacity="0.7">
      <path d="M13.9,1.9 L13.9,1.9 L14,1.9 C17.2,1.9 20.3,3.3 22.5,5.5 C24.7,7.9 26,10.8 26,14 C26,20.7 20.7,26 14.1,26 L14,26 C10.8,26 7.7,24.6 5.5,22.4 C3.1,20.2 2,17.1 2,13.9 C2,7.2 7.4,1.9 13.9,1.9 L13.9,1.9 Z M13.9,0.5 C6.6,0.5 0.6,6.4 0.5,13.8 C0.4,21.2 6.4,27.4 13.8,27.5 L13.9,27.5 C21.3,27.5 27.3,21.6 27.3,14.2 C27.4,6.8 21.4,0.6 14,0.5 C14.1,0.5 14.1,0.5 13.9,0.5 L13.9,0.5 L13.9,0.5 Z"></path>
      <rect transform="translate(30.468955, 30.261670) rotate(45.773837) translate(-30.468955, -30.261670) " x="23.1188748" y="29.2616591" width="14.7001603" height="2.00002181"></rect>
    </g>
</svg>
