<svg viewBox="0 0 80 80">
	<path fill="none" stroke="#BABCBE" stroke-width="4" stroke-miterlimit="10" d="M435.1,599l30-45.1c1.9-2.9,6.2-2.9,8.2,0
		l30.2,45.1c2.2,3.3-0.2,7.6-4.1,7.6h-60.2C435.3,606.6,432.9,602.3,435.1,599z"/>
	<circle fill="#7C807F" cx="469.1" cy="596" r="3.3"/>
	<path fill="#7C807F" d="M473,569.8c0-2.7-1.8-4.8-4-4.8c-2.2,0-3.9,2.5-3.9,5.2l2.4,17.6c0,1,0.6,1.7,1.4,1.7
		c0.8,0,1.4-0.8,1.4-1.7L473,569.8z"/>
	<path fill="none" stroke="#BABCBE" stroke-width="4" stroke-miterlimit="10" d="M6.1,60l30-45.1c1.9-2.9,6.2-2.9,8.2,0L74.4,60
		c2.2,3.3-0.2,7.6-4.1,7.6H10.2C6.3,67.6,3.9,63.3,6.1,60z"/>
	<circle fill="#7C807F" cx="40.1" cy="57" r="3.3"/>
	<path fill="#7C807F" d="M44,30.8c0-2.7-1.8-4.8-4-4.8c-2.2,0-3.9,2.5-3.9,5.2l2.4,17.6c0,1,0.6,1.7,1.4,1.7s1.4-0.8,1.4-1.7
		L44,30.8z"/>
</svg>
