<?xml version="1.0" encoding="utf-8"?>
<!-- Generator: Adobe Illustrator 18.1.1, SVG Export Plug-In . SVG Version: 6.00 Build 0)  -->
<!DOCTYPE svg PUBLIC "-//W3C//DTD SVG 1.1//EN" "http://www.w3.org/Graphics/SVG/1.1/DTD/svg11.dtd">
<svg version="1.1" id="Layer_1" xmlns="http://www.w3.org/2000/svg" xmlns:xlink="http://www.w3.org/1999/xlink" x="0px" y="0px"
	 viewBox="0 15 30 30" enable-background="new 0 15 30 30" xml:space="preserve">
<rect x="14.2" y="21.7" fill="#009EEF" width="1.4" height="17.4"/>
<rect x="11.1" y="19.2" transform="matrix(-0.7071 -0.7071 0.7071 -0.7071 3.1541 49.4962)" fill="#009EEF" width="1.4" height="9.8"/>
<rect x="17.2" y="19.3" transform="matrix(0.7071 -0.7071 0.7071 0.7071 -11.9147 19.746)" fill="#009EEF" width="1.4" height="9.8"/>
<path fill="#009EEF" d="M15,17.5c6.9,0,12.5,5.6,12.5,12.5S21.9,42.5,15,42.5S2.5,36.9,2.5,30S8.1,17.5,15,17.5 M15,16.5
	c-7.5,0-13.5,6-13.5,13.5s6,13.5,13.5,13.5s13.5-6,13.5-13.5S22.5,16.5,15,16.5L15,16.5z"/>
</svg>
