<?xml version="1.0" encoding="utf-8"?>
<!-- Generator: Adobe Illustrator 18.1.1, SVG Export Plug-In . SVG Version: 6.00 Build 0)  -->
<svg version="1.1" id="Layer_1" xmlns="http://www.w3.org/2000/svg" xmlns:xlink="http://www.w3.org/1999/xlink" x="0px" y="0px"
	 viewBox="0 0 50 50" enable-background="new 0 0 50 50" xml:space="preserve">
<g>
	<polyline fill="#FFFFFF" stroke="#737373" stroke-width="2" stroke-miterlimit="10" points="727.4,252.7 727.4,240.6 750.1,240.6 
		750.1,252.5 	"/>
	<g>
		<rect x="719.4" y="253" fill="#FFFFFF" width="38" height="20.5"/>
		<path fill="#737373" d="M756.4,254v18.5h-36V254H756.4 M758.4,252h-40v22.5h40V252L758.4,252z"/>
	</g>
	<polygon fill="#FFFFFF" stroke="#737373" stroke-width="2" stroke-miterlimit="10" points="750.1,273.8 750.1,265 727.4,265 
		727.4,279.8 743.8,279.9 	"/>
	<polygon fill="#737373" points="744.3,273.8 750.7,273.8 744.1,280.6 	"/>
	<ellipse fill="#3B99D4" cx="752.3" cy="258.3" rx="1.6" ry="1.6"/>
</g>
<g>
	<g>
		<rect x="3.5" y="10.5" fill="#FFFFFF" width="43" height="29"/>
		<g>
			<path fill="#737373" d="M45.5,11.5v27h-41v-27H45.5 M47.5,9.5h-45v31h45V9.5L47.5,9.5z"/>
		</g>
	</g>
	<polyline fill="none" stroke="#737373" stroke-width="2" stroke-miterlimit="10" points="2.8,14.1 24.7,26.2 46.6,13.6 	"/>
</g>
</svg>
