<?xml version="1.0" encoding="UTF-8"?>
<svg width="24px" height="24px" viewBox="0 0 24 24" version="1.1" xmlns="http://www.w3.org/2000/svg" xmlns:xlink="http://www.w3.org/1999/xlink">
    <g id="Artboard-7-Copy-2" stroke="none" stroke-width="1" fill="none" fill-rule="evenodd">
        <polygon id="Shape" fill="#ED5959" fill-rule="nonzero" points="7.79776047 22.5506594 1.38823487 16.1411338 1.38823487 7.35770985 7.79776047 1.44934056 16.5811845 1.44934056 22.4895537 7.35770985 22.4895537 16.1411338 16.5811845 22.5506594"></polygon>
        <path d="M11.4760893,14.3180225 C11.3823011,13.5925027 11.2906458,12.9720017 11.2011208,12.4565008 C11.1115957,11.9409999 11.0284665,11.4961484 10.9517307,11.1219329 C10.8749949,10.7477174 10.8025233,10.4250569 10.7343137,10.1539416 C10.6661041,9.88282633 10.6064216,9.62698898 10.5552644,9.3864219 C10.5041072,9.14585481 10.4657399,8.90147286 10.4401613,8.65326873 C10.4145827,8.40506459 10.4017936,8.11677026 10.4017936,7.7883771 C10.4017936,7.49053214 10.4465554,7.22323938 10.5360805,6.98649082 C10.6256056,6.74974226 10.7428391,6.54927269 10.8877845,6.38507611 C11.0327299,6.22087953 11.1968568,6.09487009 11.38017,6.00704401 C11.5634833,5.91921793 11.7531884,5.87530555 11.949291,5.87530555 C12.1368674,5.87530555 12.324441,5.91921793 12.5120174,6.00704401 C12.6995937,6.09487009 12.8637206,6.22087953 13.0044029,6.38507611 C13.1450852,6.54927269 13.2601872,6.74974226 13.3497123,6.98649082 C13.4392374,7.22323938 13.4839992,7.49053214 13.4839992,7.7883771 C13.4839992,8.11677026 13.4712101,8.40506459 13.4456315,8.65326873 C13.4200529,8.90147286 13.3816856,9.14585481 13.3305284,9.3864219 C13.2793712,9.62698898 13.2218202,9.88282633 13.1578737,10.1539416 C13.0939272,10.4250569 13.0235871,10.7477174 12.9468514,11.1219329 C12.8701156,11.4961484 12.7869864,11.9409999 12.6974613,12.4565008 C12.6079362,12.9720017 12.5205439,13.5925027 12.4352819,14.3180225 L11.4760893,14.3180225 Z" id="Path-Copy" fill="#FFFFFF"></path>
        <path d="M10.7789745,17.0539849 C10.7789745,16.8934431 10.8095534,16.7424597 10.8707121,16.60103 C10.9318709,16.4596004 11.0140518,16.3353735 11.1172572,16.2283457 C11.2204626,16.1213178 11.3427783,16.0372258 11.4842079,15.976067 C11.6256376,15.9149083 11.776621,15.8843293 11.9371628,15.8843293 C12.0977045,15.8843293 12.2505992,15.9149083 12.3958512,15.976067 C12.5411033,16.0372258 12.6653302,16.1213178 12.7685356,16.2283457 C12.871741,16.3353735 12.9539219,16.4596004 13.0150806,16.60103 C13.0762394,16.7424597 13.1068183,16.8934431 13.1068183,17.0539849 C13.1068183,17.2145266 13.0762394,17.3655101 13.0150806,17.5069397 C12.9539219,17.6483694 12.871741,17.770685 12.7685356,17.8738905 C12.6653302,17.9770959 12.5411033,18.0573656 12.3958512,18.1147019 C12.2505992,18.1720382 12.0977045,18.200706 11.9371628,18.200706 C11.776621,18.200706 11.6256376,18.1720382 11.4842079,18.1147019 C11.3427783,18.0573656 11.2204626,17.9770959 11.1172572,17.8738905 C11.0140518,17.770685 10.9318709,17.6483694 10.8707121,17.5069397 C10.8095534,17.3655101 10.7789745,17.2145266 10.7789745,17.0539849 Z" id="Path-Copy-2" fill="#FFFFFF"></path>
    </g>
</svg>