<?xml version="1.0" encoding="UTF-8"?>
<svg width="24px" height="24px" viewBox="0 0 24 24" version="1.1" xmlns="http://www.w3.org/2000/svg" xmlns:xlink="http://www.w3.org/1999/xlink">
    <!-- Generator: Sketch 51.1 (57501) - http://www.bohemiancoding.com/sketch -->
    <title>Artboard 7 Copy 16</title>
    <desc>Created with Sketch.</desc>
    <defs></defs>
    <g id="Artboard-7-Copy-16" stroke="none" stroke-width="1" fill="none" fill-rule="evenodd">
        <path d="M12.1044468,22.9479132 C6.09359321,22.9479132 1.2208336,18.0751536 1.2208336,12.0643 C1.2208336,6.05344636 6.09359321,1.18068674 12.1044468,1.18068674 C18.1153004,1.18068674 22.98806,6.05344636 22.98806,12.0643 C22.98806,18.0751536 18.1153004,22.9479132 12.1044468,22.9479132 Z" id="Path-Copy-3" fill="#FFFFFF" fill-rule="nonzero"></path>
        <path d="M12.1044468,22.9479132 C6.09359321,22.9479132 1.2208336,18.0751536 1.2208336,12.0643 C1.2208336,6.05344636 6.09359321,1.18068674 12.1044468,1.18068674 C18.1153004,1.18068674 22.98806,6.05344636 22.98806,12.0643 C22.98806,18.0751536 18.1153004,22.9479132 12.1044468,22.9479132 Z M12.1044468,21.7470683 C17.4520448,21.7470683 21.7871294,17.4104157 21.7871294,12.0608837 C21.7871294,6.71135161 17.4520448,2.37469904 12.1044468,2.37469904 C6.75684885,2.37469904 2.42176418,6.71135161 2.42176418,12.0608837 C2.42176418,17.4104157 6.75684885,21.7470683 12.1044468,21.7470683 Z" id="Oval-2-Copy-2" fill="#7B7F7F" fill-rule="nonzero"></path>
        <path d="M13.2353987,16.6146286 C13.2139887,17.096352 13.6796477,17.33721 14.6323894,17.33721 L14.6323894,18.2524798 L11.0355396,18.2524798 L11.0355396,11.7331896 C11.0355396,11.2407613 10.5752331,10.9945508 9.65460623,10.9945508 L9.65460623,10.079281 L13.2353987,10.079281 L13.2353987,16.6146286 Z" id="Path" fill="#7B7F7F" fill-rule="nonzero"></path>
        <path d="M13.1702312,6.6543752 C13.1702312,7.07819212 13.0218975,7.44448553 12.7252257,7.75326643 C12.4285538,8.06204733 12.0622604,8.21643546 11.6263345,8.21643546 C11.4083715,8.21643546 11.2055478,8.1740544 11.0178575,8.08929102 C10.8301671,8.00452764 10.6666974,7.89252056 10.5274432,7.75326643 C10.3881891,7.6140123 10.276182,7.45054251 10.1914186,7.26285216 C10.1066553,7.07516181 10.0642742,6.87233819 10.0642742,6.6543752 C10.0642742,6.21844923 10.2186623,5.85215581 10.5274432,5.55548397 C10.8362241,5.25881213 11.2025175,5.11047843 11.6263345,5.11047843 C12.0501514,5.11047843 12.4134176,5.26183934 12.7161439,5.56456571 C13.0188703,5.86729209 13.1702312,6.23055828 13.1702312,6.6543752 Z" id="Path" fill="#7B7F7F" fill-rule="nonzero"></path>
    </g>
</svg>