<?xml version="1.0" encoding="UTF-8"?>
<svg width="24px" height="24px" viewBox="0 0 24 24" version="1.1" xmlns="http://www.w3.org/2000/svg" xmlns:xlink="http://www.w3.org/1999/xlink">
    <g id="Artboard-7-Copy-10" stroke="none" stroke-width="1" fill="none" fill-rule="evenodd">
        <path d="M12.1044468,22.9479132 C6.09359321,22.9479132 1.2208336,18.0751536 1.2208336,12.0643 C1.2208336,6.05344636 6.09359321,1.18068674 12.1044468,1.18068674 C18.1153004,1.18068674 22.98806,6.05344636 22.98806,12.0643 C22.98806,18.0751536 18.1153004,22.9479132 12.1044468,22.9479132 Z" id="Path-Copy-3" fill="#FFFFFF" fill-rule="nonzero"></path>
        <path d="M12.1044468,22.9479132 C6.09359321,22.9479132 1.2208336,18.0751536 1.2208336,12.0643 C1.2208336,6.05344636 6.09359321,1.18068674 12.1044468,1.18068674 C18.1153004,1.18068674 22.98806,6.05344636 22.98806,12.0643 C22.98806,18.0751536 18.1153004,22.9479132 12.1044468,22.9479132 Z M12.1044468,21.7470683 C17.4520448,21.7470683 21.7871294,17.4104157 21.7871294,12.0608837 C21.7871294,6.71135161 17.4520448,2.37469904 12.1044468,2.37469904 C6.75684885,2.37469904 2.42176418,6.71135161 2.42176418,12.0608837 C2.42176418,17.4104157 6.75684885,21.7470683 12.1044468,21.7470683 Z" id="Oval-2-Copy-2" fill="#7B7F7F" fill-rule="nonzero"></path>
        <path d="M11.6449639,14.4882062 C11.5511758,13.7626864 11.4595205,13.1421854 11.3699954,12.6266845 C11.2804703,12.1111836 11.1973411,11.6663321 11.1206053,11.2921166 C11.0438695,10.9179011 10.9713979,10.5952406 10.9031883,10.3241253 C10.8349787,10.05301 10.7752962,9.79717268 10.724139,9.5566056 C10.6729818,9.31603851 10.6346145,9.07165656 10.6090359,8.82345243 C10.5834573,8.57524829 10.5706682,8.28695396 10.5706682,7.9585608 C10.5706682,7.66071584 10.6154301,7.39342308 10.7049552,7.15667452 C10.7944803,6.91992596 10.9117137,6.71945639 11.0566591,6.55525981 C11.2016045,6.39106323 11.3657314,6.26505379 11.5490447,6.17722771 C11.732358,6.08940163 11.9220631,6.04548925 12.1181656,6.04548925 C12.305742,6.04548925 12.4933156,6.08940163 12.680892,6.17722771 C12.8684684,6.26505379 13.0325953,6.39106323 13.1732775,6.55525981 C13.3139598,6.71945639 13.4290618,6.91992596 13.5185869,7.15667452 C13.608112,7.39342308 13.6528739,7.66071584 13.6528739,7.9585608 C13.6528739,8.28695396 13.6400848,8.57524829 13.6145062,8.82345243 C13.5889276,9.07165656 13.5505602,9.31603851 13.499403,9.5566056 C13.4482459,9.79717268 13.3906949,10.05301 13.3267484,10.3241253 C13.2628019,10.5952406 13.1924618,10.9179011 13.115726,11.2921166 C13.0389902,11.6663321 12.955861,12.1111836 12.8663359,12.6266845 C12.7768108,13.1421854 12.6894186,13.7626864 12.6041566,14.4882062 L11.6449639,14.4882062 Z" id="Path" fill="#7B7F7F"></path>
        <path d="M10.9478491,17.2241686 C10.9478491,17.0636268 10.978428,16.9126434 11.0395868,16.7712137 C11.1007456,16.6297841 11.1829264,16.5055572 11.2861318,16.3985294 C11.3893372,16.2915015 11.5116529,16.2074095 11.6530826,16.1462507 C11.7945122,16.085092 11.9454957,16.054513 12.1060374,16.054513 C12.2665792,16.054513 12.4194738,16.085092 12.5647259,16.1462507 C12.7099779,16.2074095 12.8342048,16.2915015 12.9374102,16.3985294 C13.0406157,16.5055572 13.1227965,16.6297841 13.1839553,16.7712137 C13.245114,16.9126434 13.275693,17.0636268 13.275693,17.2241686 C13.275693,17.3847103 13.245114,17.5356938 13.1839553,17.6771234 C13.1227965,17.8185531 13.0406157,17.9408687 12.9374102,18.0440742 C12.8342048,18.1472796 12.7099779,18.2275493 12.5647259,18.2848856 C12.4194738,18.3422219 12.2665792,18.3708897 12.1060374,18.3708897 C11.9454957,18.3708897 11.7945122,18.3422219 11.6530826,18.2848856 C11.5116529,18.2275493 11.3893372,18.1472796 11.2861318,18.0440742 C11.1829264,17.9408687 11.1007456,17.8185531 11.0395868,17.6771234 C10.978428,17.5356938 10.9478491,17.3847103 10.9478491,17.2241686 Z" id="Path" fill="#7B7F7F"></path>
    </g>
</svg>