<?xml version="1.0" encoding="UTF-8"?>
<svg width="24px" height="24px" viewBox="0 0 24 24" version="1.1" xmlns="http://www.w3.org/2000/svg" xmlns:xlink="http://www.w3.org/1999/xlink">
    <!-- Generator: Sketch 51.1 (57501) - http://www.bohemiancoding.com/sketch -->
    <title>Artboard 7 Copy</title>
    <desc>Created with Sketch.</desc>
    <defs></defs>
    <g id="Artboard-7-Copy" stroke="none" stroke-width="1" fill="none" fill-rule="evenodd">
        <path d="M13.3208465,2.520041 L22.6711077,19.8986857 C23.0636217,20.6282227 22.7904106,21.5378248 22.0608736,21.9303388 C21.8424208,22.0478733 21.5982286,22.1093952 21.3501641,22.1093952 L2.64964171,22.1093952 C1.82121459,22.1093952 1.14964171,21.4378223 1.14964171,20.6093952 C1.14964171,20.3613307 1.21116358,20.1171385 1.3286981,19.8986857 L10.6789593,2.520041 C11.0714733,1.79050399 11.9810754,1.51729287 12.7106124,1.90980688 C12.96941,2.04904822 13.1816052,2.26124334 13.3208465,2.520041 Z" id="Triangle-4" fill="#FFE775" fill-rule="nonzero"></path>
        <path d="M11.5331929,15.5662402 C11.4394047,14.8407205 11.3477495,14.2202194 11.2582244,13.7047185 C11.1686993,13.1892176 11.0855701,12.7443661 11.0088343,12.3701506 C10.9320985,11.9959352 10.8596269,11.6732746 10.7914173,11.4021593 C10.7232077,11.1310441 10.6635252,10.8752067 10.612368,10.6346396 C10.5612108,10.3940725 10.5228435,10.1496906 10.4972649,9.90148645 C10.4716863,9.65328232 10.4588972,9.36498799 10.4588972,9.03659482 C10.4588972,8.73874986 10.503659,8.47145711 10.5931841,8.23470855 C10.6827092,7.99795999 10.7999427,7.79749042 10.9448881,7.63329384 C11.0898335,7.46909725 11.2539604,7.34308781 11.4372737,7.25526173 C11.6205869,7.16743566 11.810292,7.12352327 12.0063946,7.12352327 C12.193971,7.12352327 12.3815446,7.16743566 12.569121,7.25526173 C12.7566974,7.34308781 12.9208242,7.46909725 13.0615065,7.63329384 C13.2021888,7.79749042 13.3172908,7.99795999 13.4068159,8.23470855 C13.496341,8.47145711 13.5411028,8.73874986 13.5411028,9.03659482 C13.5411028,9.36498799 13.5283137,9.65328232 13.5027351,9.90148645 C13.4771565,10.1496906 13.4387892,10.3940725 13.387632,10.6346396 C13.3364748,10.8752067 13.2789238,11.1310441 13.2149773,11.4021593 C13.1510308,11.6732746 13.0806908,11.9959352 13.003955,12.3701506 C12.9272192,12.7443661 12.84409,13.1892176 12.7545649,13.7047185 C12.6650398,14.2202194 12.5776475,14.8407205 12.4923856,15.5662402 L11.5331929,15.5662402 Z" id="Path" fill="#666666"></path>
        <path d="M10.8360781,18.3022026 C10.8360781,18.1416608 10.866657,17.9906774 10.9278158,17.8492478 C10.9889745,17.7078181 11.0711554,17.5835912 11.1743608,17.4765634 C11.2775662,17.3695355 11.3998819,17.2854435 11.5413116,17.2242847 C11.6827412,17.163126 11.8337246,17.1325471 11.9942664,17.1325471 C12.1548082,17.1325471 12.3077028,17.163126 12.4529548,17.2242847 C12.5982069,17.2854435 12.7224338,17.3695355 12.8256392,17.4765634 C12.9288446,17.5835912 13.0110255,17.7078181 13.0721842,17.8492478 C13.133343,17.9906774 13.1639219,18.1416608 13.1639219,18.3022026 C13.1639219,18.4627444 13.133343,18.6137278 13.0721842,18.7551574 C13.0110255,18.8965871 12.9288446,19.0189028 12.8256392,19.1221082 C12.7224338,19.2253136 12.5982069,19.3055833 12.4529548,19.3629196 C12.3077028,19.420256 12.1548082,19.4489237 11.9942664,19.4489237 C11.8337246,19.4489237 11.6827412,19.420256 11.5413116,19.3629196 C11.3998819,19.3055833 11.2775662,19.2253136 11.1743608,19.1221082 C11.0711554,19.0189028 10.9889745,18.8965871 10.9278158,18.7551574 C10.866657,18.6137278 10.8360781,18.4627444 10.8360781,18.3022026 Z" id="Path" fill="#666666"></path>
    </g>
</svg>