<svg viewBox="0 0 60 60">
	<path fill="#009EEF" d="M55,60H5c-2.8,0-5-2.2-5-5V5c0-2.8,2.2-5,5-5h50c2.8,0,5,2.2,5,5v50C60,57.8,57.8,60,55,60z"/>
	<polygon opacity="0.15" fill="#272425" points="47,16 60,31 60,60 18.6,60 11.5,48 47,48 "/>
	<rect x="12" y="16" opacity="0.3" fill="#FFFFFF" width="35" height="32.1"/>
	<path fill="#F1F1F1" d="M20,14v35h7V14H20z M26,20h-5v-5h5V20z M26,26h-5v-5h5V26z M26,32h-5v-5h5V32z M26,47h-5v-5h5V47z"/>
	<rect x="14" y="23" opacity="0.2" fill="#F1F1F1" width="5" height="23"/>
	<rect x="34" y="23" opacity="0.2" fill="#F1F1F1" width="5" height="23"/>
	<rect x="28" y="23" opacity="0.2" fill="#F1F1F1" width="5" height="23"/>
	<rect x="40" y="23" opacity="0.2" fill="#F1F1F1" width="5" height="23"/>
	<circle opacity="0.2" fill="#F1F1F1" cx="43" cy="19" r="2"/>
</svg>
