<svg viewBox="0 0 60 60">
<path fill="#009EEF" d="M55,60H5c-2.8,0-5-2.2-5-5V5c0-2.8,2.2-5,5-5h50c2.8,0,5,2.2,5,5v50C60,57.8,57.8,60,55,60z"/>
	<polygon opacity="0.25" fill="#FFFFFF" points="10,18 10,38 23,46 23,24 	"/>
	<polygon opacity="0.25" fill="#FFFFFF" points="38,18 38,39 50,46 50,24 	"/>
	<polygon opacity="0.25" fill="#FFFFFF" points="37,18 37,39 24,46 24,24 	"/>
	<circle fill="#FFFFFF" cx="38" cy="17.6" r="10.5"/>
	<path fill="#009EEF" d="M30.4,20.5c-1.1,0-2-0.9-2-2s0.9-2,2-2c1.1,0,2,0.9,2,2S31.5,20.5,30.4,20.5z M30.4,17.5
		c-0.6,0-1,0.4-1,1s0.4,1,1,1s1-0.4,1-1S30.9,17.5,30.4,17.5z"/>
	<path fill="#009EEF" d="M37.4,27.8l-1-0.1c0,0,0.5-4.8-1.6-7.1c-0.7-0.8-1.9-1.2-2.9-1.2v-1c1,0,2.7,0.5,3.6,1.5
		C37.9,22.5,37.4,27.6,37.4,27.8z"/>
	<path fill="#009EEF" d="M45.8,20.5c-1.1,0-2-0.9-2-2s0.9-2,2-2s2,0.9,2,2S46.9,20.5,45.8,20.5z M45.8,17.5c-0.6,0-1,0.4-1,1
		s0.4,1,1,1s1-0.4,1-1S46.3,17.5,45.8,17.5z"/>
	<path fill="#009EEF" d="M38.7,27.8c0-0.2-0.6-5.3,1.7-7.9c0.9-1,2.5-1.5,3.5-1.5v1c-1,0-2.1,0.4-2.8,1.2c-2,2.3-1.5,7-1.5,7.1
		L38.7,27.8z"/>
	<path fill="#009EEF" d="M42.6,16.1c-1.1,0-2-0.9-2-2s0.9-2,2-2s2,0.9,2,2S43.7,16.1,42.6,16.1z M42.6,13.1c-0.6,0-1,0.4-1,1
		s0.4,1,1,1s1-0.4,1-1S43.2,13.1,42.6,13.1z"/>
	<path fill="#009EEF" d="M37.9,27.8c0-1.2-0.3-12.1,3.6-13.1l0.2,1c-2.3,0.6-3,7.8-2.8,12.1L37.9,27.8z"/>
	<path fill="#009EEF" d="M33.5,16.1c-1.1,0-2-0.9-2-2s0.9-2,2-2s2,0.9,2,2S34.6,16.1,33.5,16.1z M33.5,13.1c-0.6,0-1,0.4-1,1
		s0.4,1,1,1s1-0.4,1-1S34.1,13.1,33.5,13.1z"/>
	<path fill="#009EEF" d="M38.2,27.8l-1,0c0.2-4.4-0.5-11.5-2.8-12.1l0.2-1C38.5,15.6,38.3,26.5,38.2,27.8z"/>
	<polygon opacity="0.15" fill="#272425" points="50,24 60,36 60,60 24.1,60 10,38 24,46 38,38 50,46 "/>
</svg>
