<svg id="Layer_1" viewBox="0 0 50 50" >
<g id="Layer_3">
	<path fill="#637582" d="M44.5,50H5.6c-3.1,0-5.6-2.5-5.6-5.6V5.6C0.1,2.5,2.6,0,5.6,0h38.9c3.1,0,5.6,2.5,5.6,5.6v38.9
		C50.1,47.5,47.6,50,44.5,50z"/>
	<polygon opacity="0.15" fill="#272425" enable-background="new    " points="21.3,16.4 31.6,10.4 50.1,27.2 50.1,45.1 49.9,46
		49.7,46.4 49.3,47.3 48.8,48.1 47.9,48.9 46.6,49.5 44.9,50 27.9,50 10.1,30.9 	"/>
</g>
<g id="Layer_1_1_">
</g>
<path fill="#E8E8E8" d="M38.7,21.9c-0.4-1.1-1.2-3-2.8-4.7c-1.4-1.5-2.9-2.3-3.9-2.8c-0.4-0.2,0.3-3.7-0.4-4c-1-0.4-3.6,2.4-5.1,2.3
	c-0.8-0.1-1.8,0-2.7,0.1c-0.9,0.1-3.1-3.2-4-2.9c-0.7,0.2-0.4,4.4-1.1,4.8c-0.8,0.5-1.1,0.7-1.8,1.4c-0.3,0.3-0.6,0.6-0.8,0.9
	c-0.7,0.8-4.7-0.4-5.1,0.4c-0.5,1,2.8,4,2.6,4.7c-0.2,0.8-0.3,1.4-0.3,1.8c-0.1,0.6-0.1,1.5,0,2.5c0.1,0.8-3.5,3.5-3.1,4.5
	c0.2,0.7,4.3-0.2,4.7,0.5c0.9,1.7,1.7,2.5,2.8,3.4c0.7,0.5,0.3,4.5,0.8,4.8c0.6,0.3,3.3-2.4,3.6-2.3c0.9,0.4,2.7,0.8,5.2,0.4
	c0.5-0.1,3,2.6,3.4,2.2c0.6-0.8-0.1-2.9,0.4-3.5c0.5-0.6,2.6-1.5,4.1-3.8c0.7-1,5.1,0,5.1-0.6c0-0.2-3.9-4.4-3.9-4.6
	c-0.1-3.3-0.9-4.5-1.7-5.5c-0.8-1-3.2-3.3-6.6-3.7c-1-0.1-3.7-0.4-5.4,1.6c-1.1,1.3-1.7,3.4-0.8,5.3c0.8,1.7,2.8,3.1,4.8,2.7
	c2-0.4,2.9-2.3,3-2.5c-0.9,1-2.3,1.5-3.5,1.2c-1.1-0.2-2.3-1.1-2.5-2.5c-0.3-1.8,1.1-3,1.2-3.1c1.3-1,2.9-0.7,3.5-0.5
	c1.8,0.4,2.8,1.6,3.2,2.1c0.2,0.3,1.9,3.5,1.2,6.2c-0.7,2.3-2.2,3.3-2.9,3.7c-0.5,0.3-3,1.4-6,0.7c-3-0.8-4.7-3.8-5.2-4.8
	c-0.3-0.7-1-3.5-0.1-6.6c0.8-3,3-4.5,3.8-5.1c2.2-1.4,4.5-1.5,5.5-1.5C33.9,15.3,38.1,21,38.7,21.9z"/>
</svg>
