<svg viewBox="0 0 70 60">
	<polygon fill="#00AA3E" points="17.7,59.9 0.4,29.9 17.7,0 52.3,0 69.6,29.9 52.3,59.9 "/>
	<polygon opacity="0.1" fill="#272425" points="53.2,17.2 21.8,16.5 13.9,40.2 29.5,59.9 51.6,60 64.8,38.2 "/>
	<g opacity="0.9">
		<path opacity="0.8" fill="#F1F1F1" d="M30.6,45.4l-6.5-1.8l-12.2-2.2l5.8-15h10.1l12.4,0.4L30.6,45.4z M16,39.1l8.8,1.6l4.2,1.2
			l6.3-12.2l-7.6-0.3l-8,0L16,39.1z"/>
		<path opacity="0.8" fill="#F1F1F1" d="M30.2,45.1l0-3L42.5,42l-6.8-13.5l21-0.3L51.5,45h-6.6L30.2,45.1z M45.8,42h3.5l3.3-10.7
			l-12.1,0.1L45.8,42z"/>
		<path opacity="0.8" fill="#F1F1F1" d="M25.5,42.6l-2.9-0.7l2.9-12.6h-8.9l4.1-14.5L44.6,18l-16,10.8L25.5,42.6z M20.5,26.4h6.3
			l9.5-6.4l-13.5-1.8L20.5,26.4z"/>
		<path opacity="0.15" fill="#272425" d="M56.6,31.5l-21.3-0.3l7.3-16.5l12,1.2L56.6,31.5z M39.9,28.2l13.3,0.2l-1.3-9.9l-7.4-0.7
			L39.9,28.2z"/>
		<path fill="#FFFFFF" d="M57,29.9l-22.7-0.3L42.1,12l12.7,1.2L57,29.9z M40.4,25.7l12,0.2l-1.2-8.9l-6.7-0.6L40.4,25.7z"/>
	</g>
</svg>
