<svg viewBox="0 0 60 60">
	<path fill="#009EEF" d="M55,60H5c-2.8,0-5-2.2-5-5V5c0-2.8,2.2-5,5-5h50c2.8,0,5,2.2,5,5v50C60,57.8,57.8,60,55,60z"/>
	<rect x="12" y="13" opacity="0.5" fill="#F1F1F1" width="35" height="35"/>
	<rect x="21" y="24" opacity="0.4" fill="#FFFFFF" width="5" height="21"/>
	<rect x="15" y="24" opacity="0.4" fill="#FFFFFF" width="5" height="21"/>
	<rect x="27" y="24" opacity="0.4" fill="#FFFFFF" width="5" height="21"/>
	<rect x="33" y="24" opacity="0.4" fill="#FFFFFF" width="5" height="21"/>
	<rect x="39" y="24" opacity="0.4" fill="#FFFFFF" width="5" height="21"/>
	<ellipse fill="#FFFFFF" cx="42" cy="18.8" rx="2.2" ry="2.2"/>
	<polygon opacity="0.15" fill="#272425" points="47,12.6 60,28.1 60,60 18.6,60 11.5,48 47,48 "/>
</svg>
