<svg viewBox="0 0 60 60">
	<path fill="#009999" d="M60,30c0,16.6-13.4,30-30,30c-4.1,0-8-0.8-11.5-2.3C7.6,53.2,0,42.5,0,30C0,13.4,13.4,0,30,0
		c16.3,0,29.6,13.1,30,29.3C60,29.5,60,29.8,60,30z"/>
	<defs>
		<path id="SVGID_1_" d="M60,29.5c0,16.6-13.4,30-30,30c-4.1,0-8-0.8-11.5-2.2L13.1,44L22,28l18-7.3l12.9-5.4l7,13.4
			C59.9,29,60,29.3,60,29.5z"/>
	</defs>
	<clipPath id="SVGID_2_">
		<use xlink:href="#SVGID_1_"  overflow="visible"/>
	</clipPath>
	<polygon opacity="0.25" clip-path="url(#SVGID_2_)" fill="#272425" points="53.1,15.4 60,31 56.9,55 25.9,60 15,44 24.4,25.7
		"/>
	<path clip-path="url(#SVGID_2_)" fill="none" d="M60,29.5c0,16.6-13.4,30-30,30"/>
	<g opacity="0.8">
		<circle fill="#F1F1F2" cx="21.4" cy="23.9" r="4.2"/>
		<circle fill="#F1F1F2" cx="17.2" cy="41.8" r="4.2"/>
		<circle fill="#F1F1F2" cx="40.5" cy="35.2" r="4.2"/>
		<polygon fill="#F1F1F2" points="14.1,44 19.6,23.5 22.5,24.3 18.4,39.7 40.1,33.7 40.9,36.6 		"/>
		<rect x="20.9" y="23" transform="matrix(0.8418 0.5398 -0.5398 0.8418 16.6655 -7.9271)" fill="#F1F1F2" width="2" height="3"/>
		<path fill="#F1F1F2" d="M33.4,33.7l-2.9-1.9l1.6-2.5l2.9,1.9L33.4,33.7z M27.7,30l-2.9-1.9l1.6-2.5l2.9,1.9L27.7,30z"/>
		<rect x="37" y="33.3" transform="matrix(0.8417 0.54 -0.54 0.8417 24.8095 -14.9995)" fill="#F1F1F2" width="2" height="3"/>
		<path fill="#FFFFFF" d="M34.5,15.7"/>
	</g>
	<path fill="#FFFFFF" d="M49,28H37c-2.2,0-4-1.8-4-4v-7c0-2.2,1.8-4,4-4h12c2.2,0,4,1.8,4,4v7C53,26.2,51.2,28,49,28z"/>
	<polygon fill="#009999" points="42.8,26.6 40.3,22.3 39.7,24.2 33.3,24.2 33.3,22.2 38.2,22.2 39.8,17.4 42.7,22.4 44.1,19.6
		45.5,21.8 50.2,21.7 50.2,23.7 44.4,23.8 44.3,23.6 	"/>
</svg>
