<svg id="Layer_1" viewBox="0 0 50 50" >
<g id="Layer_3">
	<path fill="#637582" d="M44.5,50H5.6c-3.1,0-5.6-2.5-5.6-5.6V5.6C0.1,2.5,2.6,0,5.6,0h38.9c3.1,0,5.6,2.5,5.6,5.6v38.9
		C50.1,47.5,47.6,50,44.5,50z"/>
	<polygon opacity="0.15" fill="#272425" enable-background="new    " points="13.1,12.1 36.2,12.6 50.1,27.2 50.1,45.1 49.9,46
		49.7,46.4 49.3,47.3 48.8,48.1 47.9,48.9 46.6,49.5 44.9,50 27.9,50 11.9,35.8 	"/>
</g>
<g id="Layer_1_1_">
</g>
<g>
	<g>
		<path fill="#FFFFFF" d="M8.3,23.7c0.8,0,1.5-0.2,2-0.6s0.8-0.9,1-1.5c0.2-0.6,0.3-1.8,0.3-3.3c0-1.6,0-2.6,0.1-3.1
			c0.1-0.8,0.3-1.4,0.5-1.9c0.3-0.5,0.6-0.9,1-1.1c0.4-0.3,0.9-0.5,1.5-0.7c0.4-0.1,1.1-0.1,2-0.1h0.9v2.2h-0.5
			c-1.1,0-1.8,0.2-2.2,0.5c-0.4,0.4-0.5,1.1-0.5,2.4c0,2.5-0.1,4-0.2,4.7c-0.2,1-0.5,1.8-1,2.3c-0.5,0.5-1.2,1-2.2,1.5
			c1.2,0.4,2,1.1,2.5,2c0.5,0.9,0.8,2.3,0.8,4.4c0,1.8,0,2.9,0.1,3.3c0.1,0.6,0.3,1.1,0.6,1.3s1,0.4,2,0.4h0.5v2.2h-0.9
			c-1,0-1.8-0.1-2.2-0.2c-0.7-0.2-1.2-0.6-1.7-1.1c-0.4-0.5-0.7-1.1-0.9-1.8c-0.1-0.7-0.2-2-0.2-3.7c0-1.7-0.1-2.9-0.3-3.5
			c-0.2-0.6-0.5-1.2-1-1.5c-0.5-0.4-1.2-0.6-2-0.6V23.7z"/>
	</g>
	<g>
		<path fill="#FFFFFF" d="M40.5,23.7V26c-0.8,0-1.5,0.2-2,0.6c-0.5,0.4-0.8,0.9-1,1.5c-0.2,0.6-0.3,1.8-0.3,3.3c0,1.6,0,2.6-0.1,3.1
			c-0.1,0.8-0.3,1.4-0.5,1.9c-0.3,0.5-0.6,0.9-1,1.1c-0.4,0.3-0.9,0.5-1.5,0.7c-0.4,0.1-1.1,0.2-2,0.2h-0.9v-2.2h0.5
			c1.1,0,1.8-0.2,2.2-0.5s0.5-1.1,0.5-2.4c0-2.4,0-3.8,0.1-4.5c0.2-1,0.5-1.9,1-2.5c0.5-0.6,1.2-1.1,2.1-1.5
			c-1.2-0.5-2.1-1.2-2.6-2.1c-0.5-0.9-0.7-2.3-0.7-4.3c0-1.8,0-2.9-0.1-3.3c-0.1-0.6-0.3-1.1-0.6-1.3c-0.3-0.2-1-0.4-2-0.4h-0.5
			v-2.2h0.9c1,0,1.8,0.1,2.2,0.2c0.7,0.2,1.2,0.6,1.7,1c0.4,0.5,0.7,1.1,0.9,1.8c0.1,0.7,0.2,2,0.2,3.7c0,1.7,0.1,2.9,0.3,3.5
			c0.2,0.6,0.5,1.2,1,1.5C39,23.5,39.7,23.7,40.5,23.7z"/>
	</g>
	<g>
		<path fill="#FFFFFF" d="M15.5,24.6c0-1.1,0.8-1.8,1.9-1.8s1.9,0.8,1.9,1.8c0,1-0.7,1.8-1.9,1.8C16.3,26.4,15.5,25.6,15.5,24.6z"/>
		<path fill="#FFFFFF" d="M22.2,24.6c0-1.1,0.8-1.8,1.9-1.8s1.9,0.8,1.9,1.8c0,1-0.7,1.8-1.9,1.8C23,26.4,22.2,25.6,22.2,24.6z"/>
		<path fill="#FFFFFF" d="M28.9,24.6c0-1.1,0.8-1.8,1.9-1.8c1.1,0,1.9,0.8,1.9,1.8c0,1-0.7,1.8-1.9,1.8
			C29.7,26.4,28.9,25.6,28.9,24.6z"/>
	</g>
</g>
</svg>
