<svg viewBox="0 0 60 60">
	<path fill="#009EEF" d="M55,60H5c-2.8,0-5-2.2-5-5V5c0-2.8,2.2-5,5-5h50c2.8,0,5,2.2,5,5v50C60,57.8,57.8,60,55,60z"/>
	<polygon opacity="0.25" fill="#FFFFFF" points="10,18 10,38 23,46 23,24 	"/>
	<polygon opacity="0.25" fill="#FFFFFF" points="38,18 38,39 50,46 50,24 	"/>
	<polygon opacity="0.25" fill="#FFFFFF" points="37,18 37,39 24,46 24,24 	"/>
	<rect x="29" y="31" fill="#FFFFFF" width="3" height="3"/>
	<rect x="33.9" y="35.1" fill="#FFFFFF" width="3" height="3"/>
	<rect x="33" y="26" fill="#FFFFFF" width="3" height="3"/>
	<rect x="38" y="23" fill="#FFFFFF" width="3" height="3"/>
	<rect x="44" y="23" fill="#FFFFFF" width="3" height="3"/>
	<rect x="39" y="30.4" fill="#FFFFFF" width="3" height="3"/>
	<rect x="12" y="23" fill="#FFFFFF" width="3" height="3"/>
	<rect x="19" y="30.1" fill="#FFFFFF" width="3" height="3"/>
	<rect x="16" y="37" fill="#FFFFFF" width="3" height="3"/>
	<rect x="24" y="35" fill="#FFFFFF" width="3" height="3"/>
	<rect x="44" y="37" fill="#FFFFFF" width="3" height="3"/>
	<rect x="13.1" y="27.6" transform="matrix(0.5978 0.8016 -0.8016 0.5978 29.6551 -2.8385)" opacity="0.5" fill="#FFFFFF" width="9" height="1"/>
	<rect x="18.7" y="31.6" transform="matrix(0.948 0.3183 -0.3183 0.948 12.1999 -4.2819)" opacity="0.5" fill="#FFFFFF" width="1" height="7.3"/>
	<rect x="21.3" y="33.8" transform="matrix(0.26 0.9656 -0.9656 0.26 52.4599 6.7993)" opacity="0.5" fill="#FFFFFF" width="1" height="7.7"/>
	<rect x="27.4" y="30.8" transform="matrix(0.6808 0.7325 -0.7325 0.6808 34.006 -9.4806)" opacity="0.5" fill="#FFFFFF" width="1" height="6.9"/>
	<rect x="29.5" y="33.8" transform="matrix(0.7258 0.6879 -0.6879 0.7258 32.6047 -13.2272)" opacity="0.5" fill="#FFFFFF" width="6.8" height="1"/>
	<line opacity="0.5" fill="none" stroke="#FFFFFF" stroke-miterlimit="10" x1="35.4" y1="36.6" x2="40.5" y2="31.9"/>
	<rect x="38.9" y="34.8" transform="matrix(0.6343 0.7731 -0.7731 0.6343 43.0651 -20.5179)" opacity="0.5" fill="#FFFFFF" width="8.6" height="1"/>
	<rect x="35.9" y="27.7" transform="matrix(0.2201 0.9755 -0.9755 0.2201 58.4711 -16.6737)" opacity="0.5" fill="#FFFFFF" width="7.6" height="1"/>
	<rect x="36.6" y="23.6" transform="matrix(0.5529 0.8333 -0.8333 0.5529 37.972 -19.4299)" opacity="0.5" fill="#FFFFFF" width="1" height="4.2"/>
	<rect x="32.4" y="25.8" transform="matrix(0.7206 0.6933 -0.6933 0.7206 29.5731 -14.5623)" opacity="0.5" fill="#FFFFFF" width="1" height="7.2"/>
	<rect x="14.1" y="27.8" transform="matrix(0.8991 0.4377 -0.4377 0.8991 14.6553 -7.0654)" opacity="0.5" fill="#FFFFFF" width="17.1" height="1"/>
	<rect x="45" y="25" opacity="0.5" fill="#FFFFFF" width="1" height="13"/>
	<rect x="21" y="31" opacity="0.5" fill="#FFFFFF" width="9" height="1"/>
	<polygon opacity="0.15" fill="#272425" points="50,24 60,36 60,60 24.1,60 10,38 24,46 38,38 50,46 "/>
</svg>
