<svg viewBox="-25 -5 50 50">
	<g>
		<path fill="#637582" d="M19.4,45h-38.8c-3.1,0-5.6-2.5-5.6-5.6V0.6c0-3.1,2.5-5.6,5.6-5.6h38.8C22.5-5,25-2.5,25,0.6v38.9
			C24.9,42.5,22.4,45,19.4,45z"/>
		<polygon opacity="0.15" fill="#272425" enable-background="new    " points="3.6,4.8 24.9,22.2 24.9,40.1 24.7,41 24.5,41.4 
			24.1,42.3 23.6,43.1 22.8,43.9 21.5,44.5 19.7,45 -6.1,45 -17.7,33.6 0.2,33.3 1,28.4 3.9,23.7 2.7,21.6 	"/>
		<path fill="#637582" d="M-0.8,3.9L-0.8,3.9c-3.8,0-6.8,3.1-6.8,6.8c0,0.6,0.1,1.1,0.2,1.6c-0.2,0.1-0.3,0.2-0.5,0.4
			c-0.3,0.3-0.5,0.7-0.5,1.2l0.2,1.4c0,0.9,0.6,1.7,1.5,1.7h0.1c0.3,1.9,0.8,4,2.4,4.8c0,0-0.6,2.1-0.6,2.2c-0.9,0.1-0.3,0-0.4,0
			c-5.2,0.2-9.2,3.8-9.2,3.8c-1.6,1.5-2.3,3.7-2.5,5.7c-1.7,0,33.8,0,32.2,0c-0.2-1.9-0.9-4.2-2.5-5.7c0,0-4-3.7-9.2-3.8
			c-0.1,0,0.5,0-0.4,0c0-0.1-0.6-2.2-0.6-2.2C4.2,21,4.7,18.9,5,17h0.1c0.9,0,1.5-0.7,1.5-1.7l0.2-1.4c0-0.5-0.2-0.9-0.5-1.2
			c-0.1-0.1-0.3-0.3-0.5-0.3c0-0.6,0.1-1.1,0.1-1.7C5.9,7,2.9,3.9-0.8,3.9L-0.8,3.9"/>
		<path fill="#BABCBE" d="M15.3,34H-17v-0.5l-0.4-0.1c0.3-2.6,1.2-4.6,2.7-6c0.2-0.2,4.1-3.8,9.5-4l0,0c0.1-0.2,0.2-0.7,0.4-1.4
			c-1.4-1-1.9-2.8-2.2-4.6c-1-0.2-1.6-1-1.6-2.1l-0.2-1.4c0-0.6,0.2-1.2,0.6-1.6c0.1,0,0.2-0.1,0.3-0.2C-8,11.6-8,11.2-8,10.7
			c0-4,3.2-7.2,7.2-7.3l0,0h0.1c4,0,7.2,3.3,7.2,7.3c0,0.5,0,0.9-0.1,1.4c0.1,0.1,0.2,0.2,0.3,0.2c0.4,0.4,0.6,0.9,0.6,1.5L7,15.3
			c0,1.1-0.7,1.9-1.6,2c-0.3,1.9-0.9,3.6-2.3,4.6c0.2,0.8,0.4,1.2,0.4,1.5l0,0c5.4,0.2,9.4,3.8,9.5,4c1.5,1.3,2.4,3.4,2.7,6
			l-0.4,0.1V34z M-16.4,33h31.1c-0.3-2.1-1.1-3.8-2.3-4.9c0,0-3.7-3.4-8.6-3.7H3.6H3.5l-1-0.1l0.1-0.4c-0.1-0.2-0.3-1.2-0.6-2.1
			l-0.1-0.3l0.4-0.2c1.5-0.8,1.9-2.7,2.2-4.5l0.1-0.4h0.3c0.8,0,1.1-0.6,1.1-1.2l0.2-1.5c0-0.2-0.1-0.5-0.4-0.8
			c-0.1-0.1-0.2-0.2-0.4-0.2L5,12.5l0.1-0.4c0.1-0.5,0.2-1,0.2-1.5c0-3.5-2.8-6.3-6.2-6.3h-0.1l0,0h0c-3.4,0-6.2,2.9-6.2,6.3
			c0,0.5,0.1,1,0.2,1.5l0.1,0.4l-0.4,0.3c-0.1,0-0.2,0.1-0.3,0.2c-0.3,0.2-0.4,0.5-0.4,0.9l0.2,1.4c0,0.7,0.3,1.2,1,1.2h0.4
			l0.1,0.4c0.3,1.8,0.7,3.7,2.2,4.5l0.4,0.2L-3.7,22c-0.3,0.7-0.6,1.7-0.6,2l0.1,0.4l-1,0.1h-0.1h-0.3c-4.8,0.3-8.5,3.7-8.5,3.7
			C-15.3,29.3-16,30.9-16.4,33z"/>
	</g>
</svg>
