<svg viewBox="-25 -5 50 50">
	<g>
		<path fill="#637582" d="M19.5,45h-38.9c-3.1,0-5.6-2.5-5.6-5.6V0.6c0-3.1,2.5-5.6,5.6-5.6h38.9C22.5-5,25-2.5,25,0.6v38.9
			C25,42.5,22.5,45,19.5,45z"/>
		<polyline opacity="0.15" fill="#272425" enable-background="new    " points="2.8,21.6 11.3,8.3 25,22.2 25,40.1 24.8,41 
			24.6,41.4 24.2,42.3 23.7,43.1 22.9,43.9 21.6,44.5 19.8,45 2.8,45 -11.7,27.6 	"/>
		<path fill="#BABCBE" d="M-0.8,5.2l12.1,3.1v16.6c0,0-1,6-12.1,11"/>
		<path fill="#E8E8E8" d="M-0.8,5.2l-12.1,3.1v16.6c0,0,1,6,12.1,11"/>
		<rect x="-7" y="19.2" fill="#5A6974" width="12.4" height="8.1"/>
		<path fill="#5A6974" d="M-0.4,24.3h-1.1c-2.3,0-4.2-1.9-4.2-4.2v-3.7c0-2.3,1.9-4.2,4.2-4.2h1.1c2.3,0,4.2,1.9,4.2,4.2v3.7
			C3.8,22.5,1.9,24.3-0.4,24.3z M-1.4,14.3c-1.2,0-2.1,0.9-2.1,2.1v3.7c0,1.2,0.9,2.1,2.1,2.1h1.1c1.2,0,2.1-0.9,2.1-2.1v-3.7
			c0-1.2-0.9-2.1-2.1-2.1H-1.4z"/>
	</g>
</svg>
