<?xml version="1.0" encoding="UTF-8"?><!DOCTYPE svg PUBLIC "-//W3C//DTD SVG 1.1//EN" "http://www.w3.org/Graphics/SVG/1.1/DTD/svg11.dtd"><svg xmlns="http://www.w3.org/2000/svg" xmlns:xlink="http://www.w3.org/1999/xlink"><defs/><symbol id="add" viewBox="55 0 40 40">
  <rect x="57.9" y="17.9" width="33.3" height="4.1"/>
  <rect x="72.5" y="3.3" width="4.1" height="33.3"/>
</symbol><symbol id="checkbox-checked" viewBox="0 0 20 20">
	<linearGradient id="checkbox-checked-gradient" gradientUnits="userSpaceOnUse" x1="10" y1="0.5" x2="10" y2="19.5">
		<stop offset="0" style="stop-color:#FFFFFF"/>
		<stop offset="1" style="stop-color:#F2F2F2"/>
	</linearGradient>
	<rect x="0.5" y="0.5" fill="url(#checkbox-checked-gradient)" width="19" height="19"/>
  <path fill="#CCCBCB" d="M19,1v18H1V1H19 M20,0H0v20h20V0L20,0z"/>
	<rect x="5.9" y="8.8" transform="matrix(0.7071 -0.7071 0.7071 0.7071 -6.3011 8.288)" fill="#009EEF" width="2" height="5.9"/>
	<polygon fill="#009EEF" points="8.5,14.5 7.1,13.1 15,5.4 16.4,6.9 	"/>
</symbol><symbol id="checkbox-disabled-checked" viewBox="0 0 20 20">
  <rect x="0" opacity="0.8" fill="#F3F3F3" width="20" height="20"/>
  <g opacity="0.4">
    <rect x="5.6" y="8.7" transform="matrix(0.7071 -0.7071 0.7071 0.7071 -6.2811 8.0795)" fill="#888888" width="2" height="5.9"/>
    <polygon fill="#888888" points="8.3,14.4 6.9,13 14.8,5.3 16.2,6.7 	"/>
  </g>
</symbol><symbol id="checkbox-disabled" viewBox="0 0 20 20">
  <rect x="0" y="0" opacity="0.8" fill="#F3F3F3" width="20" height="20"/>
</symbol><symbol id="checkbox-error" viewBox="0 0 20 20">
	<linearGradient id="checkbox-error-gradient" gradientUnits="userSpaceOnUse" x1="10" y1="0.5" x2="10" y2="19.5">
		<stop offset="0" style="stop-color:#FFFFFF"/>
		<stop offset="1" style="stop-color:#F2F2F2"/>
	</linearGradient>
	<rect x="0.5" y="0.5" fill="url(#checkbox-error-gradient)" width="19" height="19"/>
	<path fill="#D1625E" d="M19,1v18H1V1H19 M20,0H0v20h20V0L20,0z"/>
</symbol><symbol id="checkbox-hover-checked" viewBox="0 0 20 20">
	<linearGradient id="checkbox-hover-checked-gradient" gradientUnits="userSpaceOnUse" x1="10" y1="0.5" x2="10" y2="19.5">
		<stop offset="0" style="stop-color:#FFFFFF"/>
		<stop offset="1" style="stop-color:#F2F2F2"/>
	</linearGradient>
	<rect x="0.5" y="0.5" fill="url(#checkbox-hover-checked-gradient)" width="19" height="19"/>
  <path fill="#CCCCCC" d="M19,1v18H1V1H19 M20,0H0v20h20V0L20,0z"/>
  <g opacity="8.000000e-002">
    <rect x="0" y="0" fill="#009EEF" width="20" height="20"/>
  </g>
	<rect x="5.9" y="8.8" transform="matrix(0.7071 -0.7071 0.7071 0.7071 -6.3011 8.288)" fill="#009EEF" width="2" height="5.9"/>
	<polygon fill="#009EEF" points="8.5,14.5 7.1,13.1 15,5.4 16.4,6.9 	"/>
</symbol><symbol id="checkbox-hover" viewBox="0 0 20 20">
	<linearGradient id="checkbox-hover-gradient" gradientUnits="userSpaceOnUse" x1="10" y1="0.5" x2="10" y2="19.5">
		<stop offset="0" style="stop-color:#FFFFFF"/>
		<stop offset="1" style="stop-color:#F2F2F2"/>
	</linearGradient>
	<rect x="0.5" y="0.5" fill="url(#checkbox-hover-gradient)" width="19" height="19"/>
  <path fill="#CCCCCC" d="M19,1v18H1V1H19 M20,0H0v20h20V0L20,0z"/>
  <g opacity="0.08">
    <rect y="0" fill="#009EEF" width="20" height="20"/>
  </g>
</symbol><symbol id="checkbox" viewBox="0 0 20 20">
	<linearGradient id="checkbox-gradient" gradientUnits="userSpaceOnUse" x1="10" y1="0.5" x2="10" y2="19.5">
		<stop offset="0" style="stop-color:#FFFFFF"/>
		<stop offset="1" style="stop-color:#F2F2F2"/>
	</linearGradient>
	<rect x="0.5" y="0.5" fill="url(#checkbox-gradient)" width="19" height="19"/>
  <path fill="#CCCBCB" d="M19,1v18H1V1H19 M20,0H0v20h20V0L20,0z"/>
</symbol><symbol id="chevron-double" viewBox="0 0 48 48">
  <path class="base" d="M 24.83,14.83 22,12 10,24 22,36 24.83,33.17 15.66,24 Z"/>
  <path class="base" d="m 38.797605,14.855422 -2.83,-2.83 -12,12 12,12 2.83,-2.83 -9.17,-9.17 z"/>
</symbol><symbol id="chevron" viewBox="0 0 48 48">
  <path class="base" d="M30.83 14.83L28 12 16 24l12 12 2.83-2.83L21.66 24z"/>
</symbol><symbol id="close" viewBox="0 0 48 48">
	<path class="base" d="M38 12.83L35.17 10 24 21.17 12.83 10 10 12.83 21.17 24 10 35.17 12.83 38 24 26.83 35.17 38 38 35.17 26.83 24z"/>
</symbol><symbol id="email" viewBox="0 0 50 50">
<g>
	<polyline fill="#FFFFFF" stroke="#737373" stroke-width="2" stroke-miterlimit="10" points="727.4,252.7 727.4,240.6 750.1,240.6 
		750.1,252.5 	"/>
	<g>
		<rect x="719.4" y="253" fill="#FFFFFF" width="38" height="20.5"/>
		<path fill="#737373" d="M756.4,254v18.5h-36V254H756.4 M758.4,252h-40v22.5h40V252L758.4,252z"/>
	</g>
	<polygon fill="#FFFFFF" stroke="#737373" stroke-width="2" stroke-miterlimit="10" points="750.1,273.8 750.1,265 727.4,265 
		727.4,279.8 743.8,279.9 	"/>
	<polygon fill="#737373" points="744.3,273.8 750.7,273.8 744.1,280.6 	"/>
	<ellipse fill="#3B99D4" cx="752.3" cy="258.3" rx="1.6" ry="1.6"/>
</g>
<g>
	<g>
		<rect x="3.5" y="10.5" fill="#FFFFFF" width="43" height="29"/>
		<g>
			<path fill="#737373" d="M45.5,11.5v27h-41v-27H45.5 M47.5,9.5h-45v31h45V9.5L47.5,9.5z"/>
		</g>
	</g>
	<polyline fill="none" stroke="#737373" stroke-width="2" stroke-miterlimit="10" points="2.8,14.1 24.7,26.2 46.6,13.6 	"/>
</g>
</symbol><symbol id="error" viewBox="0 0 24 24">
    <g id="Artboard-7-Copy-2" stroke="none" stroke-width="1" fill="none" fill-rule="evenodd">
        <polygon id="Shape" fill="#ED5959" fill-rule="nonzero" points="7.79776047 22.5506594 1.38823487 16.1411338 1.38823487 7.35770985 7.79776047 1.44934056 16.5811845 1.44934056 22.4895537 7.35770985 22.4895537 16.1411338 16.5811845 22.5506594"/>
        <path d="M11.4760893,14.3180225 C11.3823011,13.5925027 11.2906458,12.9720017 11.2011208,12.4565008 C11.1115957,11.9409999 11.0284665,11.4961484 10.9517307,11.1219329 C10.8749949,10.7477174 10.8025233,10.4250569 10.7343137,10.1539416 C10.6661041,9.88282633 10.6064216,9.62698898 10.5552644,9.3864219 C10.5041072,9.14585481 10.4657399,8.90147286 10.4401613,8.65326873 C10.4145827,8.40506459 10.4017936,8.11677026 10.4017936,7.7883771 C10.4017936,7.49053214 10.4465554,7.22323938 10.5360805,6.98649082 C10.6256056,6.74974226 10.7428391,6.54927269 10.8877845,6.38507611 C11.0327299,6.22087953 11.1968568,6.09487009 11.38017,6.00704401 C11.5634833,5.91921793 11.7531884,5.87530555 11.949291,5.87530555 C12.1368674,5.87530555 12.324441,5.91921793 12.5120174,6.00704401 C12.6995937,6.09487009 12.8637206,6.22087953 13.0044029,6.38507611 C13.1450852,6.54927269 13.2601872,6.74974226 13.3497123,6.98649082 C13.4392374,7.22323938 13.4839992,7.49053214 13.4839992,7.7883771 C13.4839992,8.11677026 13.4712101,8.40506459 13.4456315,8.65326873 C13.4200529,8.90147286 13.3816856,9.14585481 13.3305284,9.3864219 C13.2793712,9.62698898 13.2218202,9.88282633 13.1578737,10.1539416 C13.0939272,10.4250569 13.0235871,10.7477174 12.9468514,11.1219329 C12.8701156,11.4961484 12.7869864,11.9409999 12.6974613,12.4565008 C12.6079362,12.9720017 12.5205439,13.5925027 12.4352819,14.3180225 L11.4760893,14.3180225 Z" id="Path-Copy" fill="#FFFFFF"/>
        <path d="M10.7789745,17.0539849 C10.7789745,16.8934431 10.8095534,16.7424597 10.8707121,16.60103 C10.9318709,16.4596004 11.0140518,16.3353735 11.1172572,16.2283457 C11.2204626,16.1213178 11.3427783,16.0372258 11.4842079,15.976067 C11.6256376,15.9149083 11.776621,15.8843293 11.9371628,15.8843293 C12.0977045,15.8843293 12.2505992,15.9149083 12.3958512,15.976067 C12.5411033,16.0372258 12.6653302,16.1213178 12.7685356,16.2283457 C12.871741,16.3353735 12.9539219,16.4596004 13.0150806,16.60103 C13.0762394,16.7424597 13.1068183,16.8934431 13.1068183,17.0539849 C13.1068183,17.2145266 13.0762394,17.3655101 13.0150806,17.5069397 C12.9539219,17.6483694 12.871741,17.770685 12.7685356,17.8738905 C12.6653302,17.9770959 12.5411033,18.0573656 12.3958512,18.1147019 C12.2505992,18.1720382 12.0977045,18.200706 11.9371628,18.200706 C11.776621,18.200706 11.6256376,18.1720382 11.4842079,18.1147019 C11.3427783,18.0573656 11.2204626,17.9770959 11.1172572,17.8738905 C11.0140518,17.770685 10.9318709,17.6483694 10.8707121,17.5069397 C10.8095534,17.3655101 10.7789745,17.2145266 10.7789745,17.0539849 Z" id="Path-Copy-2" fill="#FFFFFF"/>
    </g>
</symbol><symbol id="expand-collapse" viewBox="0 0 15 15">
<polygon fill="#676767" points="7.5,11.4 1.1,5 2.5,3.6 7.5,8.6 12.5,3.6 13.9,5 "/>
</symbol><symbol id="export" viewBox="0 5 40 40">
<g id="Layer_4">
	<path fill="#009EEF" d="M32.1,35.5l-1,1.1v4H6.6V9.5h17.8l0.1,7.7h6.6v9.9l1,0.9l0-11.1L25,8.3H5.5v33.3h26.7L32.1,35.5z"/>
	<polygon fill="#FFFFFF" points="32.1,28 32.1,35.5 32.1,35.5 32.1,28 	"/>
	<g>
		
			<rect x="29.1" y="23.7" transform="matrix(-0.7071 0.7071 -0.7071 -0.7071 71.8094 27.8896)" fill="#009EEF" width="2" height="10.2"/>
		
			<rect x="29.2" y="29.5" transform="matrix(-0.7071 -0.7071 0.7071 -0.7071 27.0647 80.4883)" fill="#009EEF" width="2" height="10.2"/>
		<rect x="18.7" y="30.7" fill="#009EEF" width="13.5" height="2"/>
	</g>
</g>
<g id="Layer_1_1_">
</g>
</symbol><symbol id="info" viewBox="0 0 24 24">
    <g id="Artboard-7-Copy-16" stroke="none" stroke-width="1" fill="none" fill-rule="evenodd">
        <path d="M12.1044468,22.9479132 C6.09359321,22.9479132 1.2208336,18.0751536 1.2208336,12.0643 C1.2208336,6.05344636 6.09359321,1.18068674 12.1044468,1.18068674 C18.1153004,1.18068674 22.98806,6.05344636 22.98806,12.0643 C22.98806,18.0751536 18.1153004,22.9479132 12.1044468,22.9479132 Z" id="Path-Copy-3" fill="#FFFFFF" fill-rule="nonzero"/>
        <path d="M12.1044468,22.9479132 C6.09359321,22.9479132 1.2208336,18.0751536 1.2208336,12.0643 C1.2208336,6.05344636 6.09359321,1.18068674 12.1044468,1.18068674 C18.1153004,1.18068674 22.98806,6.05344636 22.98806,12.0643 C22.98806,18.0751536 18.1153004,22.9479132 12.1044468,22.9479132 Z M12.1044468,21.7470683 C17.4520448,21.7470683 21.7871294,17.4104157 21.7871294,12.0608837 C21.7871294,6.71135161 17.4520448,2.37469904 12.1044468,2.37469904 C6.75684885,2.37469904 2.42176418,6.71135161 2.42176418,12.0608837 C2.42176418,17.4104157 6.75684885,21.7470683 12.1044468,21.7470683 Z" id="Oval-2-Copy-2" fill="#7B7F7F" fill-rule="nonzero"/>
        <path d="M13.2353987,16.6146286 C13.2139887,17.096352 13.6796477,17.33721 14.6323894,17.33721 L14.6323894,18.2524798 L11.0355396,18.2524798 L11.0355396,11.7331896 C11.0355396,11.2407613 10.5752331,10.9945508 9.65460623,10.9945508 L9.65460623,10.079281 L13.2353987,10.079281 L13.2353987,16.6146286 Z" id="Path" fill="#7B7F7F" fill-rule="nonzero"/>
        <path d="M13.1702312,6.6543752 C13.1702312,7.07819212 13.0218975,7.44448553 12.7252257,7.75326643 C12.4285538,8.06204733 12.0622604,8.21643546 11.6263345,8.21643546 C11.4083715,8.21643546 11.2055478,8.1740544 11.0178575,8.08929102 C10.8301671,8.00452764 10.6666974,7.89252056 10.5274432,7.75326643 C10.3881891,7.6140123 10.276182,7.45054251 10.1914186,7.26285216 C10.1066553,7.07516181 10.0642742,6.87233819 10.0642742,6.6543752 C10.0642742,6.21844923 10.2186623,5.85215581 10.5274432,5.55548397 C10.8362241,5.25881213 11.2025175,5.11047843 11.6263345,5.11047843 C12.0501514,5.11047843 12.4134176,5.26183934 12.7161439,5.56456571 C13.0188703,5.86729209 13.1702312,6.23055828 13.1702312,6.6543752 Z" id="Path" fill="#7B7F7F" fill-rule="nonzero"/>
    </g>
</symbol><symbol id="loading-ring" viewBox="0 0 100 100" preserveAspectRatio="xMidYMid"><rect x="0" y="0" width="100" height="100" fill="none" class="bk"/><circle cx="50" cy="50" r="40" stroke="none" fill="none" stroke-width="10" stroke-linecap="round"/><circle cx="50" cy="50" r="40" stroke="#000000" fill="none" stroke-width="6" stroke-linecap="round"><animate attributeName="stroke-dashoffset" dur="2s" repeatCount="indefinite" from="0" to="502"/><animate attributeName="stroke-dasharray" dur="2s" repeatCount="indefinite" values="150.6 100.4;1 250;150.6 100.4"/></circle></symbol><symbol id="loading-ripple" viewBox="0 0 100 100">
	<rect x="0" y="0" width="100" height="100" fill="none" class="bk"/>
	<g>
		<animate attributeName="opacity" dur="2s" repeatCount="indefinite" begin="0s" keyTimes="0;0.33;1" values="1;1;0"/>
		<circle cx="50" cy="50" r="40" stroke="#009eef" fill="none" stroke-width="6" stroke-linecap="round">
			<animate attributeName="r" dur="2s" repeatCount="indefinite" begin="0s" keyTimes="0;0.33;1" values="0;22;44"/>
		</circle>
	</g>
	<g>
		<animate attributeName="opacity" dur="2s" repeatCount="indefinite" begin="1s" keyTimes="0;0.33;1" values="1;1;0"/>
		<circle cx="50" cy="50" r="40" stroke="#009eef" fill="none" stroke-width="6" stroke-linecap="round">
			<animate attributeName="r" dur="2s" repeatCount="indefinite" begin="1s" keyTimes="0;0.33;1" values="0;22;44"/>
		</circle>
	</g>
</symbol><symbol id="menu" viewBox="0 0 48 48">
	<path class="base" d="M6 36h36v-4H6v4zm0-10h36v-4H6v4zm0-14v4h36v-4H6z"/>
</symbol><symbol id="more" viewBox="0 0 35 35">
  <circle fill="#009EEF" cx="4.5" cy="17.5" r="4"/>
  <circle fill="#009EEF" cx="17.5" cy="17.5" r="4"/>
  <circle fill="#009EEF" cx="30.5" cy="17.5" r="4"/>
</symbol><symbol id="open-tabs" viewBox="0 0 30 30">
  <g class="frost-svg-link">
    <path d="M23,14v11H5V7h11V5H6C4.9,5,3,6.9,3,8v16c0,1.1,1.9,3,3,3h16c1.1,0,3-1.9,3-3V14H23z"/>
	<polygon points="27,3 27,10 25,10 25,6.5 17.3,14.2 15.9,12.8 23.7,5 20,5 20,3 "/>
  </g>
</symbol><symbol id="print" viewBox="0 0 50 50">
<g>
	<polyline fill="#FFFFFF" stroke="#7B7F7F" stroke-width="2" stroke-miterlimit="10" points="14.1,17.1 14.1,5 36.8,5 36.8,16.9 	
		"/>
	<g>
		<rect x="6" y="17.4" fill="#FFFFFF" width="38" height="20.5"/>
		<path fill="#7B7F7F" d="M43,18.4v18.5H7V18.4H43 M45,16.4H5v22.5h40V16.4L45,16.4z"/>
	</g>
	<polygon fill="#FFFFFF" stroke="#7B7F7F" stroke-width="2" stroke-miterlimit="10" points="36.8,38.2 36.8,29.4 14.1,29.4 
		14.1,44.2 30.4,44.3 	"/>
	<polygon fill="#7B7F7F" points="30.9,38.3 37.3,38.3 30.8,45 	"/>
	<ellipse fill="#009EEF" cx="39" cy="22.8" rx="1.6" ry="1.6"/>
</g>
</symbol><symbol id="round-add" viewBox="0 0 30 30">
<rect x="14.5" y="7.5" fill="#009EEF" width="1" height="15"/>
<rect x="7.5" y="14.5" fill="#009EEF" width="15" height="1"/>
<path fill="#009EEF" d="M15,2.5c6.9,0,12.5,5.6,12.5,12.5S21.9,27.5,15,27.5S2.5,21.9,2.5,15S8.1,2.5,15,2.5 M15,1.5
	C7.5,1.5,1.5,7.5,1.5,15s6,13.5,13.5,13.5s13.5-6,13.5-13.5S22.5,1.5,15,1.5L15,1.5z"/>
</symbol><symbol id="round-close" viewBox="0 0 30 30">
	<circle fill="#FFFFFF" cx="15" cy="15" r="15"/>
	<g class="frost-svg-round-close">
		<rect x="13.5" y="7" transform="matrix(0.7071 0.7071 -0.7071 0.7071 15 -6.2132)" width="3" height="15.9"/>
		<rect x="7" y="13.5" transform="matrix(0.7071 0.7071 -0.7071 0.7071 15 -6.2132)" width="15.9" height="3"/>
		<path d="M15,2c7.2,0,13,5.8,13,13s-5.8,13-13,13S2,22.2,2,15S7.8,2,15,2 M15,0C6.7,0,0,6.7,0,15s6.7,15,15,15
		s15-6.7,15-15S23.3,0,15,0L15,0z"/>
	</g>
</symbol><symbol id="round-remove" viewBox="0 15 30 30">
<rect x="7.5" y="29.5" fill="#E32C2C" width="15" height="1"/>
<g>
	<path fill="#E32C2C" d="M15,18.5c6.3,0,11.5,5.2,11.5,11.5S21.3,41.5,15,41.5S3.5,36.3,3.5,30S8.7,18.5,15,18.5 M15,17.5
		C8.1,17.5,2.5,23.1,2.5,30S8.1,42.5,15,42.5S27.5,36.9,27.5,30S21.9,17.5,15,17.5L15,17.5z"/>
</g>
</symbol><symbol id="status-checkmark" viewBox="0 0 24 24">
    <g id="Artboard-7-Copy-13" stroke="none" stroke-width="1" fill="none" fill-rule="evenodd">
        <polygon id="Combined-Shape" fill="#00AA3E" fill-rule="nonzero" points="9.39404989 15.6538382 19.8282941 3.81745394 22 6.35659574 9.55923701 20.1825461 2 12.623309 4.18176038 10.4415487"/>
    </g>
</symbol><symbol id="status-fail" viewBox="0 0 24 24">
    <g id="Artboard-7-Copy-13" stroke="none" stroke-width="1" fill="none" fill-rule="evenodd">
        <polygon id="Combined-Shape" fill="#ED5959" fill-rule="nonzero" points="14.6812463 12 20.411691 17.7304447 17.7304447 20.411691 12 14.6812463 6.26955534 20.411691 3.58830904 17.7304447 9.3187537 12 3.58830904 6.26955534 6.26955534 3.58830904 12 9.3187537 17.7304447 3.58830904 20.411691 6.26955534"/>
    </g>
</symbol><symbol id="status-info" viewBox="0 0 24 24">
    <g id="Artboard-7-Copy-10" stroke="none" stroke-width="1" fill="none" fill-rule="evenodd">
        <path d="M12.1044468,22.9479132 C6.09359321,22.9479132 1.2208336,18.0751536 1.2208336,12.0643 C1.2208336,6.05344636 6.09359321,1.18068674 12.1044468,1.18068674 C18.1153004,1.18068674 22.98806,6.05344636 22.98806,12.0643 C22.98806,18.0751536 18.1153004,22.9479132 12.1044468,22.9479132 Z" id="Path-Copy-3" fill="#FFFFFF" fill-rule="nonzero"/>
        <path d="M12.1044468,22.9479132 C6.09359321,22.9479132 1.2208336,18.0751536 1.2208336,12.0643 C1.2208336,6.05344636 6.09359321,1.18068674 12.1044468,1.18068674 C18.1153004,1.18068674 22.98806,6.05344636 22.98806,12.0643 C22.98806,18.0751536 18.1153004,22.9479132 12.1044468,22.9479132 Z M12.1044468,21.7470683 C17.4520448,21.7470683 21.7871294,17.4104157 21.7871294,12.0608837 C21.7871294,6.71135161 17.4520448,2.37469904 12.1044468,2.37469904 C6.75684885,2.37469904 2.42176418,6.71135161 2.42176418,12.0608837 C2.42176418,17.4104157 6.75684885,21.7470683 12.1044468,21.7470683 Z" id="Oval-2-Copy-2" fill="#7B7F7F" fill-rule="nonzero"/>
        <path d="M11.6449639,14.4882062 C11.5511758,13.7626864 11.4595205,13.1421854 11.3699954,12.6266845 C11.2804703,12.1111836 11.1973411,11.6663321 11.1206053,11.2921166 C11.0438695,10.9179011 10.9713979,10.5952406 10.9031883,10.3241253 C10.8349787,10.05301 10.7752962,9.79717268 10.724139,9.5566056 C10.6729818,9.31603851 10.6346145,9.07165656 10.6090359,8.82345243 C10.5834573,8.57524829 10.5706682,8.28695396 10.5706682,7.9585608 C10.5706682,7.66071584 10.6154301,7.39342308 10.7049552,7.15667452 C10.7944803,6.91992596 10.9117137,6.71945639 11.0566591,6.55525981 C11.2016045,6.39106323 11.3657314,6.26505379 11.5490447,6.17722771 C11.732358,6.08940163 11.9220631,6.04548925 12.1181656,6.04548925 C12.305742,6.04548925 12.4933156,6.08940163 12.680892,6.17722771 C12.8684684,6.26505379 13.0325953,6.39106323 13.1732775,6.55525981 C13.3139598,6.71945639 13.4290618,6.91992596 13.5185869,7.15667452 C13.608112,7.39342308 13.6528739,7.66071584 13.6528739,7.9585608 C13.6528739,8.28695396 13.6400848,8.57524829 13.6145062,8.82345243 C13.5889276,9.07165656 13.5505602,9.31603851 13.499403,9.5566056 C13.4482459,9.79717268 13.3906949,10.05301 13.3267484,10.3241253 C13.2628019,10.5952406 13.1924618,10.9179011 13.115726,11.2921166 C13.0389902,11.6663321 12.955861,12.1111836 12.8663359,12.6266845 C12.7768108,13.1421854 12.6894186,13.7626864 12.6041566,14.4882062 L11.6449639,14.4882062 Z" id="Path" fill="#7B7F7F"/>
        <path d="M10.9478491,17.2241686 C10.9478491,17.0636268 10.978428,16.9126434 11.0395868,16.7712137 C11.1007456,16.6297841 11.1829264,16.5055572 11.2861318,16.3985294 C11.3893372,16.2915015 11.5116529,16.2074095 11.6530826,16.1462507 C11.7945122,16.085092 11.9454957,16.054513 12.1060374,16.054513 C12.2665792,16.054513 12.4194738,16.085092 12.5647259,16.1462507 C12.7099779,16.2074095 12.8342048,16.2915015 12.9374102,16.3985294 C13.0406157,16.5055572 13.1227965,16.6297841 13.1839553,16.7712137 C13.245114,16.9126434 13.275693,17.0636268 13.275693,17.2241686 C13.275693,17.3847103 13.245114,17.5356938 13.1839553,17.6771234 C13.1227965,17.8185531 13.0406157,17.9408687 12.9374102,18.0440742 C12.8342048,18.1472796 12.7099779,18.2275493 12.5647259,18.2848856 C12.4194738,18.3422219 12.2665792,18.3708897 12.1060374,18.3708897 C11.9454957,18.3708897 11.7945122,18.3422219 11.6530826,18.2848856 C11.5116529,18.2275493 11.3893372,18.1472796 11.2861318,18.0440742 C11.1829264,17.9408687 11.1007456,17.8185531 11.0395868,17.6771234 C10.978428,17.5356938 10.9478491,17.3847103 10.9478491,17.2241686 Z" id="Path" fill="#7B7F7F"/>
    </g>
</symbol><symbol id="view-large" viewBox="0 0 10 10">
	<g class="view-size-svg">
		<rect x="0" y="0" width="10" height="4.5"/>
		<rect x="0" y="5.5" width="10" height="4.5"/>
	</g>
</symbol><symbol id="view-medium" viewBox="0 0 10 10">
	<g class="view-size-svg">
		<rect x="0" y="0" width="10" height="1.75"/>
		<rect x="0" y="2.75" width="10" height="1.75"/>
		<rect x="0" y="5.5" width="10" height="1.75"/>
		<rect x="0" y="8.25" width="10" height="1.75"/>
	</g>
</symbol><symbol id="view-small" viewBox="0 0 10 10">
  <g class="view-size-svg">
    <rect x="0" y="0" width="10" height="1"/>
    <rect x="0" y="2.25" width="10" height="1"/>
    <rect x="0" y="4.5" width="10" height="1"/>
    <rect x="0" y="6.75" width="10" height="1"/>
    <rect x="0" y="9" width="10" height="1"/>
  </g>
</symbol><symbol id="warning" viewBox="0 0 24 24">
    <g id="Artboard-7-Copy" stroke="none" stroke-width="1" fill="none" fill-rule="evenodd">
        <path d="M13.3208465,2.520041 L22.6711077,19.8986857 C23.0636217,20.6282227 22.7904106,21.5378248 22.0608736,21.9303388 C21.8424208,22.0478733 21.5982286,22.1093952 21.3501641,22.1093952 L2.64964171,22.1093952 C1.82121459,22.1093952 1.14964171,21.4378223 1.14964171,20.6093952 C1.14964171,20.3613307 1.21116358,20.1171385 1.3286981,19.8986857 L10.6789593,2.520041 C11.0714733,1.79050399 11.9810754,1.51729287 12.7106124,1.90980688 C12.96941,2.04904822 13.1816052,2.26124334 13.3208465,2.520041 Z" id="Triangle-4" fill="#FFE775" fill-rule="nonzero"/>
        <path d="M11.5331929,15.5662402 C11.4394047,14.8407205 11.3477495,14.2202194 11.2582244,13.7047185 C11.1686993,13.1892176 11.0855701,12.7443661 11.0088343,12.3701506 C10.9320985,11.9959352 10.8596269,11.6732746 10.7914173,11.4021593 C10.7232077,11.1310441 10.6635252,10.8752067 10.612368,10.6346396 C10.5612108,10.3940725 10.5228435,10.1496906 10.4972649,9.90148645 C10.4716863,9.65328232 10.4588972,9.36498799 10.4588972,9.03659482 C10.4588972,8.73874986 10.503659,8.47145711 10.5931841,8.23470855 C10.6827092,7.99795999 10.7999427,7.79749042 10.9448881,7.63329384 C11.0898335,7.46909725 11.2539604,7.34308781 11.4372737,7.25526173 C11.6205869,7.16743566 11.810292,7.12352327 12.0063946,7.12352327 C12.193971,7.12352327 12.3815446,7.16743566 12.569121,7.25526173 C12.7566974,7.34308781 12.9208242,7.46909725 13.0615065,7.63329384 C13.2021888,7.79749042 13.3172908,7.99795999 13.4068159,8.23470855 C13.496341,8.47145711 13.5411028,8.73874986 13.5411028,9.03659482 C13.5411028,9.36498799 13.5283137,9.65328232 13.5027351,9.90148645 C13.4771565,10.1496906 13.4387892,10.3940725 13.387632,10.6346396 C13.3364748,10.8752067 13.2789238,11.1310441 13.2149773,11.4021593 C13.1510308,11.6732746 13.0806908,11.9959352 13.003955,12.3701506 C12.9272192,12.7443661 12.84409,13.1892176 12.7545649,13.7047185 C12.6650398,14.2202194 12.5776475,14.8407205 12.4923856,15.5662402 L11.5331929,15.5662402 Z" id="Path" fill="#666666"/>
        <path d="M10.8360781,18.3022026 C10.8360781,18.1416608 10.866657,17.9906774 10.9278158,17.8492478 C10.9889745,17.7078181 11.0711554,17.5835912 11.1743608,17.4765634 C11.2775662,17.3695355 11.3998819,17.2854435 11.5413116,17.2242847 C11.6827412,17.163126 11.8337246,17.1325471 11.9942664,17.1325471 C12.1548082,17.1325471 12.3077028,17.163126 12.4529548,17.2242847 C12.5982069,17.2854435 12.7224338,17.3695355 12.8256392,17.4765634 C12.9288446,17.5835912 13.0110255,17.7078181 13.0721842,17.8492478 C13.133343,17.9906774 13.1639219,18.1416608 13.1639219,18.3022026 C13.1639219,18.4627444 13.133343,18.6137278 13.0721842,18.7551574 C13.0110255,18.8965871 12.9288446,19.0189028 12.8256392,19.1221082 C12.7224338,19.2253136 12.5982069,19.3055833 12.4529548,19.3629196 C12.3077028,19.420256 12.1548082,19.4489237 11.9942664,19.4489237 C11.8337246,19.4489237 11.6827412,19.420256 11.5413116,19.3629196 C11.3998819,19.3055833 11.2775662,19.2253136 11.1743608,19.1221082 C11.0711554,19.0189028 10.9889745,18.8965871 10.9278158,18.7551574 C10.866657,18.6137278 10.8360781,18.4627444 10.8360781,18.3022026 Z" id="Path" fill="#666666"/>
    </g>
</symbol></svg>