<svg viewBox="0 0 30 30">
	<polygon fill="#DBDBDB" points="23,27 4,27 4,3 15,3 15,10.1 23,10.1 "/>
	<polygon fill="#DBDBDB" points="16,3 16,9 23,9 "/>
	<rect x="9" y="14" fill="#009EEF" width="20" height="8"/>
	<path fill="#FFFFFF" d="M11,21v-6h1v5h3v1H11z"/>
	<path fill="#FFFFFF" d="M16,18c0-0.6,0.1-1.1,0.2-1.5c0.1-0.3,0.3-0.6,0.5-0.8c0.2-0.2,0.4-0.4,0.7-0.5c0.3-0.2,0.7-0.2,1.1-0.2
	c0.8,0,1.4,0.3,1.8,0.8c0.5,0.5,0.7,1.3,0.7,2.2c0,0.9-0.2,1.7-0.7,2.2c-0.5,0.5-1.1,0.8-1.8,0.8c-0.8,0-1.4-0.3-1.8-0.8
	C16.2,19.7,16,19,16,18z M17,18c0,0.7,0.2,1.2,0.5,1.5c0.3,0.3,0.6,0.5,1,0.5c0.4,0,0.8-0.2,1-0.5S20,18.7,20,18
	c0-0.7-0.2-1.2-0.5-1.5c-0.3-0.3-0.6-0.5-1-0.5s-0.8,0.2-1,0.5C17.2,16.8,17,17.3,17,18z"/>
	<path fill="#FFFFFF" d="M24.7,18.6v-0.7l2.3,0v2.2c-0.4,0.3-0.7,0.5-1.1,0.7c-0.4,0.2-0.8,0.2-1.2,0.2c-0.5,0-1-0.1-1.4-0.4
	c-0.4-0.2-0.8-0.6-1-1.1c-0.2-0.5-0.3-1-0.3-1.5c0-0.6,0.1-1.1,0.3-1.6c0.2-0.5,0.5-0.9,0.9-1.1c0.4-0.2,0.9-0.4,1.4-0.4
	c0.4,0,0.7,0.1,1.1,0.2c0.3,0.1,0.6,0.3,0.7,0.6c0.2,0.2,0.3,0.6,0.4,0.9l-0.6,0.2c-0.1-0.3-0.2-0.5-0.3-0.7
	c-0.1-0.2-0.3-0.3-0.5-0.4c-0.2-0.1-0.5-0.2-0.7-0.2c-0.3,0-0.6,0.1-0.8,0.2c-0.2,0.1-0.4,0.2-0.6,0.4c-0.1,0.2-0.3,0.4-0.3,0.6
	c-0.1,0.4-0.2,0.7-0.2,1.2c0,0.5,0.1,0.9,0.2,1.3s0.4,0.6,0.7,0.8c0.3,0.2,0.7,0.3,1,0.3c0.3,0,0.6-0.1,0.9-0.2s0.5-0.3,0.7-0.4
	v-1.1H24.7z"/>
</svg>
