<svg viewBox="0 0 50 50">
	<g opacity="0.7">
		<circle fill="#F2F2F2" cx="13.5" cy="19.3" r="4.2"/>
		<circle fill="#F2F2F2" cx="9.3" cy="37.2" r="4.2"/>
		<circle fill="#F2F2F2" cx="32.6" cy="30.5" r="4.2"/>
		<polyline fill="none" stroke="#F2F2F2" stroke-width="3" stroke-miterlimit="10" points="13.1,19.3 8.4,37.2 32.6,30.5 			"/>
		<line fill="none" stroke="#F2F2F2" stroke-width="3" stroke-miterlimit="10" x1="13.1" y1="19.3" x2="14" y2="19.8"/>
		<line fill="none" stroke="#F2F2F2" stroke-width="3" stroke-miterlimit="10" stroke-dasharray="4.2577,4.2577" x1="15.8" y1="21" x2="29.2" y2="29.6"/>
		<line fill="none" stroke="#F2F2F2" stroke-width="3" stroke-miterlimit="10" x1="30.1" y1="30.1" x2="31" y2="30.7"/>
		<path fill="#FFFFFF" d="M26.6,11.1"/>
	</g>
	<path opacity="0.25" fill="#5D5D5D" enable-background="new    " d="M42.1,24.4H27.3c-1.7,0-3-1.4-3-3v-9.9c0-1.6,1.3-3,3-3h14.8
		c1.7,0,3,1.4,3,3v9.9C45.1,23,43.8,24.4,42.1,24.4z"/>
	<path fill="#FFFFFF" d="M45.1,10.4v10.8c0,1.1-0.9,2-2,2H27.5c-1.1,0-2-0.9-2-2v-2h6.1l0.8-2.3l2.5,4.5l1.5-3l0.3,0.4h5.9v-1.5
		h-5l-1.3-1.9l-1.5,2.9L32,13.4l-1.5,4.3h-5.1v-7.3c0-1.1,0.9-1.9,2-1.9h15.7C44.3,8.5,45.1,9.4,45.1,10.4z"/>
</svg>
