<?xml version="1.0" encoding="utf-8"?>
<!-- Generator: Adobe Illustrator 18.1.1, SVG Export Plug-In . SVG Version: 6.00 Build 0)  -->
<!DOCTYPE svg PUBLIC "-//W3C//DTD SVG 1.1//EN" "http://www.w3.org/Graphics/SVG/1.1/DTD/svg11.dtd">
<svg version="1.1" id="Layer_1" xmlns="http://www.w3.org/2000/svg" xmlns:xlink="http://www.w3.org/1999/xlink" x="0px" y="0px"
	 width="50px" height="40px" viewBox="-5 -18 50 40" enable-background="new -5 -18 50 40" xml:space="preserve">
<path fill="#E8E8E8" d="M28.3,22H11.1c-1.6,0-3.2-1.5-3.9-2.7L-1.4,4.1c-0.7-1.3-0.7-3.3,0-4.6l8.6-14.6C8-16.6,9.8-17,11.1-17h17.1
	c1.4,0,3.1,0.4,3.9,1.8l8.6,14.8c0.7,1.3,0.7,3.1,0,4.4l-8.6,15.4C31.5,20.6,29.8,22,28.3,22z M11.1-14c-0.6,0-1.3,0-1.5,0.3L1,1
	C0.8,1.4,0.8,2.3,1,2.7l8.6,15.2c0.3,0.6,1.2,1.1,1.5,1.1h17.1c0.4,0,1.2-0.6,1.5-1.2l8.6-15.2c0.3-0.5,0.3-1.3,0-1.8l-8.6-14.5
	c-0.2-0.4-0.9-0.3-1.5-0.3H11.1z"/>
<circle fill="#BABCBE" cx="29.5" cy="-15.7" r="2.3"/>
<circle fill="#BABCBE" cx="9.5" cy="-15.7" r="2.3"/>
<circle fill="#BABCBE" cx="29.5" cy="19.7" r="2.3"/>
<circle fill="#BABCBE" cx="40.5" cy="1.5" r="2.3"/>
<circle fill="#BABCBE" cx="-0.5" cy="1.5" r="2.3"/>
<circle fill="#BABCBE" cx="9.5" cy="19.7" r="2.3"/>
</svg>
