<svg viewBox="0 0 25 25">
	<rect x="11.8" y="5.6" fill="#009EEF" width="1.2" height="14.5"/>
	<rect x="9.2" y="3.5" class="left" transform="matrix(0.7071 0.7071 -0.7071 0.7071 8.3011 -4.7245)" fill="#009EEF" width="1.2" height="8.2"/>
	<rect x="14.3" y="3.6" class="right" transform="matrix(-0.7071 0.7071 -0.7071 -0.7071 30.8789 2.6216)" fill="#009EEF" width="1.2" height="8.2"/>
	<path fill="#009EEF" d="M12.5,23.8c-6.2,0-11.2-5-11.2-11.2s5-11.2,11.2-11.2s11.2,5,11.2,11.2S18.8,23.8,12.5,23.8z M12.5,2.6
	c-5.4,0-9.9,4.4-9.9,9.9c0,5.4,4.4,9.9,9.9,9.9s9.9-4.4,9.9-9.9C22.4,7.1,17.9,2.6,12.5,2.6z"/>
</svg>
