<svg viewBox="0 0 35 35">
	<g>
		<path style="fill:#E8E8E8;" d="M17.462,6.65H17.4l-0.005,0c-3.689,0.038-6.658,3.058-6.658,6.767c0,0.562,0.067,1.107,0.196,1.628
			l0.472-0.116l-0.206-0.441c-0.218,0.102-0.422,0.24-0.598,0.415l0,0c-0.362,0.361-0.596,0.865-0.596,1.424l0.004,0.065
			l0.176,1.307l0.482-0.065h-0.487c0,0.519,0.158,1.015,0.479,1.397c0.318,0.382,0.815,0.628,1.374,0.624h0.068v-0.487l-0.481,0.076
			c0.145,0.908,0.33,1.859,0.693,2.715c0.361,0.852,0.922,1.629,1.808,2.084l0.222-0.433l-0.467-0.135
			c0,0.001-0.139,0.48-0.278,0.977c-0.07,0.249-0.139,0.502-0.193,0.704c-0.027,0.101-0.049,0.19-0.066,0.262l-0.022,0.1
			l-0.015,0.136l0.004,0.061l0.483-0.058l-0.029-0.486c-0.192,0.011-0.313,0.019-0.386,0.024l-0.079,0.005l-0.021,0.002
			l-0.013,0.001l-0.018,0.002l-0.034,0.006l-0.063,0.017l-0.101,0.049l-0.114,0.101c-0.046,0.055-0.111,0.164-0.111,0.31
			c0,0.192,0.112,0.324,0.172,0.371c0.122,0.093,0.161,0.086,0.193,0.1c0.065,0.014,0.081,0.014,0.091,0.014
			c0.004,0,0.007,0,0.012,0.001l0.02,0l0.048-0.002l0.066-0.004l0.034-0.003l0.026-0.003l0.039-0.007l0.068-0.02l0.107-0.055
			l0.113-0.107c0.045-0.057,0.1-0.162,0.1-0.295c0.001-0.101-0.035-0.198-0.075-0.26c-0.083-0.122-0.152-0.151-0.192-0.174
			l-0.125-0.043l-0.08-0.009l-0.021,0l-0.015,0c-5.073,0.168-8.776,3.657-8.817,3.684l0.002-0.002
			c-1.649,1.524-2.276,3.701-2.507,5.55l0.483,0.06l0.129-0.469c-0.995-0.273-1.736-1.189-1.735-2.27V3.328
			c0-0.648,0.263-1.234,0.691-1.663c0.428-0.428,1.013-0.692,1.658-0.692h14.178h14.178c0.645,0,1.23,0.264,1.658,0.692
			c0.427,0.429,0.691,1.016,0.691,1.663v28.417c0.002,1.081-0.739,1.997-1.735,2.27l0.129,0.469l0.483-0.06
			c-0.231-1.849-0.858-4.026-2.507-5.55l0.002,0.002c-0.041-0.027-3.744-3.516-8.817-3.684l-0.015,0l-0.03,0.001l-0.051,0.005
			l-0.092,0.023l-0.133,0.073l-0.114,0.127c-0.04,0.062-0.074,0.158-0.073,0.257c0.002,0.181,0.093,0.296,0.143,0.345
			c0.108,0.098,0.146,0.096,0.175,0.112l0.079,0.022l0.052,0.007l0.076,0.005l0.034,0.002l0.042,0.001l0.029-0.001l0.059-0.007
			l0.105-0.032l0.139-0.091c0.061-0.052,0.156-0.185,0.155-0.356c0-0.146-0.065-0.255-0.111-0.31
			c-0.098-0.109-0.146-0.116-0.177-0.135l-0.091-0.03l-0.054-0.009l-0.049-0.004c-0.054-0.004-0.183-0.012-0.458-0.028l-0.029,0.486
			l0.483,0.056l0.003-0.059l-0.015-0.136c-0.022-0.112-0.064-0.273-0.119-0.482c-0.165-0.616-0.439-1.561-0.439-1.563l-0.467,0.135
			l0.222,0.433c0.886-0.455,1.447-1.231,1.808-2.084c0.363-0.856,0.549-1.806,0.693-2.715l-0.481-0.076v0.487h0.068
			c0.559,0.004,1.056-0.242,1.374-0.624c0.321-0.381,0.479-0.878,0.479-1.397h-0.487l0.482,0.065l0.176-1.307l0.004-0.065
			c0-0.558-0.234-1.062-0.596-1.424l0,0c-0.175-0.176-0.38-0.313-0.598-0.415l-0.206,0.441l0.472,0.116
			c0.129-0.521,0.196-1.067,0.196-1.628c0-3.709-2.968-6.729-6.658-6.767l-0.005,0h-0.062v0.973h0.062l-0.005,0
			c3.15,0.031,5.694,2.614,5.694,5.794c0,0.484-0.058,0.951-0.167,1.395c-0.056,0.225,0.056,0.459,0.266,0.557
			c0.123,0.057,0.236,0.135,0.321,0.221l0,0c0.194,0.196,0.311,0.453,0.312,0.736h0.487l-0.482-0.065l-0.176,1.307l-0.004,0.065
			c0,0.322-0.1,0.593-0.249,0.769c-0.153,0.175-0.339,0.275-0.631,0.279h-0.068c-0.239,0-0.443,0.174-0.481,0.41
			c-0.139,0.882-0.318,1.763-0.627,2.486c-0.311,0.726-0.73,1.276-1.358,1.599c-0.206,0.106-0.309,0.345-0.245,0.568
			c0,0.001,0.138,0.477,0.276,0.969c0.069,0.246,0.138,0.496,0.188,0.689c0.025,0.096,0.046,0.179,0.06,0.236l0.013,0.062
			l0.001,0.003l0.357-0.05l-0.36,0l0.003,0.05l0.357-0.05l-0.36,0h0.457l-0.454-0.053l-0.003,0.053h0.457l-0.454-0.053
			c-0.015,0.133,0.025,0.266,0.111,0.369c0.086,0.102,0.21,0.165,0.344,0.173c0.191,0.011,0.311,0.019,0.383,0.023l0.073,0.005
			l0.012,0.001l0.022-0.276l-0.027,0.275l0.005,0l0.022-0.276l-0.027,0.275l0.044-0.459l-0.061,0.457l0.016,0.002l0.044-0.459
			l-0.061,0.457l0.064-0.479l-0.097,0.473l0.033,0.006l0.064-0.479l-0.097,0.473l0.097-0.476l-0.16,0.459l0.062,0.017l0.097-0.476
			l-0.16,0.459l0.16-0.459l-0.261,0.41l0.101,0.049l0.16-0.459l-0.261,0.41l0.261-0.411l-0.375,0.31l0.114,0.101l0.261-0.411
			l-0.375,0.31l0.375-0.31l-0.487,0c0,0.146,0.065,0.255,0.111,0.31l0.375-0.31l-0.487,0h0.487l-0.332-0.356
			c-0.061,0.052-0.156,0.185-0.155,0.356h0.487l-0.332-0.356l0.332,0.356l-0.132-0.468c-0.034,0.015-0.08,0.011-0.2,0.113
			l0.332,0.356l-0.132-0.468l0.131,0.468l-0.02-0.486c-0.005,0.001-0.008,0.001-0.012,0.001c-0.011,0-0.028,0-0.099,0.017
			l0.131,0.468l-0.02-0.486l0.02,0.48v-0.48l-0.02,0l0.02,0.48v-0.48v0.424l0.017-0.424l-0.017,0v0.424l0.017-0.424l-0.05-0.003
			L21.6,25.197l-0.012,0.139l0.016-0.139l-0.004,0l-0.012,0.139l0.016-0.139l-0.05,0.434l0.076-0.431l-0.027-0.004l-0.05,0.434
			l0.076-0.431l-0.084,0.472l0.139-0.459l-0.055-0.013l-0.084,0.472l0.139-0.459l-0.141,0.465l0.236-0.424l-0.095-0.04l-0.141,0.465
			l0.236-0.424l-0.236,0.425l0.354-0.334l-0.117-0.091l-0.236,0.425l0.354-0.334l-0.354,0.334h0.486
			c-0.001-0.169-0.083-0.283-0.133-0.334l-0.354,0.334h0.486h-0.486l0.413,0.257c0.04-0.062,0.074-0.158,0.073-0.257h-0.486
			l0.413,0.257l-0.413-0.257l0.222,0.433c0.04-0.024,0.11-0.054,0.191-0.176l-0.413-0.257l0.222,0.433l-0.222-0.432l0.096,0.476
			l0.126-0.044l-0.222-0.432l0.096,0.476l-0.093-0.464l0.016,0.473l0.077-0.009l-0.093-0.464l0.016,0.473l-0.012-0.352v0.353
			l0.012,0l-0.012-0.352v0.353V25.68l-0.015,0.486c2.313,0.069,4.368,0.923,5.841,1.768c0.737,0.422,1.327,0.84,1.731,1.15
			c0.202,0.155,0.357,0.284,0.46,0.372l0.116,0.101l0.035,0.031l0.002,0.002c1.391,1.273,1.988,3.221,2.2,4.953
			c0.017,0.14,0.095,0.266,0.212,0.345c0.117,0.078,0.264,0.102,0.399,0.065c1.409-0.386,2.449-1.675,2.451-3.209V3.328
			C34.983,1.495,33.494,0.002,31.663,0H17.485H3.307c-1.831,0.002-3.32,1.495-3.322,3.328v28.417
			c0.002,1.533,1.041,2.822,2.451,3.209c0.136,0.037,0.282,0.013,0.399-0.065c0.117-0.078,0.195-0.205,0.212-0.345
			c0.212-1.732,0.809-3.68,2.2-4.953l0.002-0.002l0.035-0.031c0.378-0.347,3.813-3.271,8.148-3.392l-0.015-0.486v0.487v-0.382
			l-0.02,0.382l0.02,0.001v-0.382l-0.02,0.382l0.024-0.473l-0.072,0.468l0.048,0.005l0.024-0.473l-0.072,0.468l0.074-0.479
			l-0.163,0.457l0.09,0.023l0.074-0.479l-0.163,0.457l0.164-0.458l-0.296,0.386l0.132,0.072l0.164-0.458l-0.296,0.386l0.296-0.386
			l-0.411,0.26l0.115,0.126l0.296-0.386l-0.411,0.26l0.411-0.26h-0.486c-0.001,0.101,0.035,0.198,0.075,0.26l0.411-0.26h-0.486
			h0.486l-0.343-0.345c-0.05,0.049-0.141,0.164-0.143,0.345h0.486l-0.343-0.345l0.343,0.344l-0.168-0.456
			c-0.029,0.016-0.067,0.014-0.175,0.112l0.343,0.344l-0.168-0.456l0.167,0.452l-0.089-0.474l-0.077,0.021l0.167,0.452l-0.089-0.474
			l0.075,0.397l-0.038-0.403l-0.037,0.005l0.075,0.397l-0.038-0.403L13.326,25.2L13.3,25.202l-0.007,0l0.017,0.374v-0.374l-0.017,0
			l0.017,0.374v-0.374v0.481l0.027-0.481l-0.027-0.001v0.481l0.027-0.481l-0.028,0.485l0.081-0.479l-0.054-0.006l-0.028,0.485
			l0.081-0.479l-0.081,0.48l0.179-0.452l-0.097-0.027l-0.081,0.48l0.179-0.452l-0.179,0.452l0.314-0.371l-0.135-0.081l-0.179,0.452
			l0.314-0.371l-0.314,0.371h0.487c0-0.192-0.112-0.324-0.172-0.371l-0.314,0.371h0.487H13.31l0.375,0.31
			c0.046-0.055,0.111-0.164,0.111-0.31H13.31l0.375,0.31l-0.375-0.31l0.198,0.445c0.032-0.019,0.079-0.025,0.177-0.135l-0.375-0.31
			l0.198,0.445l-0.198-0.444l0.107,0.474l0.09-0.03l-0.198-0.444l0.107,0.474l-0.106-0.47l0.053,0.479l0.053-0.009l-0.106-0.47
			l0.053,0.479l-0.043-0.386l0.032,0.387l0.011-0.001l-0.043-0.386l0.032,0.387c0.005-0.001,0.128-0.009,0.468-0.029
			c0.133-0.008,0.259-0.071,0.344-0.174c0.086-0.103,0.126-0.237,0.11-0.37l-0.454,0.054h0.458L14.275,25.6l-0.454,0.054h0.458
			h-0.36l0.357,0.05l0.003-0.05h-0.36l0.357,0.05l0.001-0.003c0.008-0.046,0.05-0.215,0.103-0.411
			c0.16-0.599,0.434-1.544,0.435-1.546c0.065-0.223-0.038-0.462-0.245-0.568c-0.628-0.324-1.047-0.873-1.358-1.599
			c-0.309-0.723-0.488-1.604-0.627-2.486c-0.037-0.236-0.241-0.41-0.481-0.41h-0.068c-0.292-0.004-0.478-0.105-0.631-0.279
			c-0.15-0.176-0.25-0.446-0.249-0.769l-0.004-0.065l-0.176-1.307l-0.482,0.065h0.487c0-0.283,0.117-0.541,0.312-0.736l0,0
			c0.085-0.086,0.198-0.164,0.321-0.221c0.21-0.098,0.322-0.332,0.266-0.557c-0.11-0.445-0.167-0.911-0.167-1.395
			c0-3.18,2.544-5.763,5.694-5.794l-0.005,0h0.062V6.65"/>
		<polyline style="fill:#E8E8E8;" points="31.663,0.487 17.485,0.487 31.663,0.487 		"/>
	</g>
</svg>
