<svg viewBox="0 0 40 40" enable-background="new 0 0 40 40">
<g>
	<rect y="2.9" opacity="0.4" fill="#F1F1F1" width="26.6" height="26.6"/>
	<rect x="1.7" y="11" opacity="0.2" fill="#FFFFFF" width="22.4" height="16.3"/>
</g>
<path fill="#E8E8E8" d="M36.8,29.5c0.6-1.3,1.7-2.1,3-2.2c0.1-0.9,0.2-1.8,0.1-2.7c-0.3-0.1-0.6-0.1-0.9-0.3c-1.9-0.8-2.7-3-1.9-4.9
	c0.1-0.3,0.3-0.6,0.5-0.8c-0.5-0.7-1.1-1.3-1.7-1.9c-1,0.8-2.5,1-3.8,0.5c-1.3-0.6-2.1-1.8-2.2-3.2l0,0c-0.8-0.1-1.7-0.1-2.5,0
	c0,0.3-0.1,0.7-0.3,1c-0.8,1.9-3,2.8-4.9,1.9c-0.3-0.1-0.6-0.3-0.9-0.5c-0.8,0.6-1.5,1.3-2.1,2.1c0.6,1,0.8,2.3,0.2,3.5
	C19.1,23,18.1,23.8,17,24c-0.1,0.8-0.1,1.6-0.1,2.4c0.3,0,0.7,0.1,1,0.3c1.9,0.8,2.7,3,1.9,4.9c-0.1,0.3-0.3,0.6-0.6,0.9
	c0.5,0.6,1,1.2,1.6,1.8c1-0.8,2.5-1.1,3.8-0.5c1.3,0.6,2.1,1.8,2.2,3.2c0.9,0.1,1.8,0.1,2.6,0c0-0.3,0.1-0.6,0.3-1
	c0.8-1.9,3-2.8,4.9-1.9c0.3,0.1,0.5,0.3,0.8,0.5c0.6-0.5,1.1-1,1.6-1.5C36.4,32,36.3,30.7,36.8,29.5z M25.5,32.1
	c-3.6-1.6-5.3-5.9-3.7-9.6c1.6-3.7,5.9-5.3,9.5-3.7c3.6,1.6,5.3,5.9,3.7,9.6C33.4,32.1,29.2,33.7,25.5,32.1z"/>
</svg>
