<?xml version="1.0" encoding="iso-8859-1"?>
<!-- Generator: Adobe Illustrator 18.1.1, SVG Export Plug-In . SVG Version: 6.00 Build 0)  -->
<svg version="1.1" id="Layer_1" xmlns="http://www.w3.org/2000/svg" xmlns:xlink="http://www.w3.org/1999/xlink" x="0px" y="0px"
	 viewBox="0 0 30 30" style="enable-background:new 0 0 30 30;" xml:space="preserve">
<g>
	<path style="fill:#009999;" d="M15,29.5C7.005,29.5,0.5,22.995,0.5,15S7.005,0.5,15,0.5S29.5,7.005,29.5,15S22.995,29.5,15,29.5z"
		/>
	<path style="fill:#FFFFFF;" d="M15,1c7.72,0,14,6.28,14,14s-6.28,14-14,14S1,22.72,1,15S7.28,1,15,1 M15,0C6.716,0,0,6.716,0,15
		s6.716,15,15,15s15-6.716,15-15S23.284,0,15,0L15,0z"/>
</g>
<g>
	<circle style="fill:#FFFFFF;" cx="15.285" cy="20.259" r="1.253"/>
	<path style="fill:#FFFFFF;" d="M16.766,10.31c0-1.025-0.684-1.823-1.519-1.823c-0.835,0-1.481,0.949-1.481,1.975l0.911,6.684
		c0,0.38,0.228,0.646,0.532,0.646c0.304,0,0.532-0.304,0.532-0.646L16.766,10.31z"/>
</g>
</svg>
